<mxfile modified="2021-11-10T02:08:51.213Z" host="app.diagrams.net" agent="5.0 (Macintosh; Intel Mac OS X 10_14_2) AppleWebKit/537.36 (KHTML, like Gecko) Chrome/95.0.4638.69 Safari/537.36" etag="nakU4WOXczfvn5CBuUWZ" version="15.7.0" type="github">
  <diagram id="f106602c-feb2-e66a-4537-3a34d633f6aa" name="Page-1">
    <mxGraphModel dx="958" dy="640" grid="1" gridSize="10" guides="1" tooltips="1" connect="1" arrows="1" fold="1" page="1" pageScale="1" pageWidth="1169" pageHeight="827" background="none" math="0" shadow="0">
      <root>
        <mxCell id="0" />
        <mxCell id="1" parent="0" />
        <mxCell id="14" value="&lt;b&gt;Google &lt;/b&gt;Cloud Platform" style="fillColor=#f5f5f5;strokeColor=#666666;shadow=0;fontSize=14;align=left;spacing=10;9E9E9E;verticalAlign=top;spacingTop=-4;fontStyle=0;spacingLeft=40;html=1;fontColor=#333333;container=0;" parent="1" vertex="1">
          <mxGeometry x="260" y="120" width="740" height="440" as="geometry" />
        </mxCell>
        <mxCell id="1sHCwfxGnrAHTTrKWaEu-1017" value="" style="shape=cylinder;whiteSpace=wrap;html=1;boundedLbl=1;backgroundOutline=1;fillColor=#d5e8d4;strokeColor=#82b366;" parent="1" vertex="1">
          <mxGeometry x="130" y="255" width="60" height="70" as="geometry" />
        </mxCell>
        <mxCell id="1sHCwfxGnrAHTTrKWaEu-1025" value="" style="strokeColor=#d6b656;shadow=1;strokeWidth=1;rounded=1;absoluteArcSize=1;arcSize=2;fillColor=#fff2cc;" parent="1" vertex="1">
          <mxGeometry x="110" y="392" width="100" height="44" as="geometry" />
        </mxCell>
        <mxCell id="1sHCwfxGnrAHTTrKWaEu-1026" value="API" style="sketch=0;dashed=0;connectable=0;html=1;fillColor=#757575;strokeColor=none;shape=mxgraph.gcp2.logs_api;part=1;labelPosition=right;verticalLabelPosition=middle;align=left;verticalAlign=middle;spacingLeft=5;fontSize=12;" parent="1sHCwfxGnrAHTTrKWaEu-1025" vertex="1">
          <mxGeometry y="0.5" width="32" height="32" relative="1" as="geometry">
            <mxPoint x="5" y="-16" as="offset" />
          </mxGeometry>
        </mxCell>
        <mxCell id="1sHCwfxGnrAHTTrKWaEu-1019" value="MySQL" style="text;html=1;strokeColor=none;fillColor=none;align=center;verticalAlign=middle;whiteSpace=wrap;rounded=0;" parent="1" vertex="1">
          <mxGeometry x="130" y="275" width="60" height="30" as="geometry" />
        </mxCell>
        <mxCell id="15" value="" style="shape=mxgraph.gcp2.google_cloud_platform;fillColor=#F6F6F6;strokeColor=none;shadow=0;gradientColor=none;" parent="1" vertex="1">
          <mxGeometry x="280" y="130" width="23" height="20" as="geometry">
            <mxPoint x="20" y="10" as="offset" />
          </mxGeometry>
        </mxCell>
        <mxCell id="1sHCwfxGnrAHTTrKWaEu-1007" value="" style="strokeColor=#dddddd;shadow=1;strokeWidth=1;rounded=1;absoluteArcSize=1;arcSize=2;" parent="1" vertex="1">
          <mxGeometry x="280" y="196" width="250" height="270" as="geometry" />
        </mxCell>
        <mxCell id="1sHCwfxGnrAHTTrKWaEu-1028" value="Cloud&#xa;Composer" style="sketch=0;html=1;fillColor=#5184F3;strokeColor=none;verticalAlign=top;labelPosition=center;verticalLabelPosition=bottom;align=center;spacingTop=-6;fontSize=11;fontStyle=1;fontColor=#999999;shape=mxgraph.gcp2.hexIcon;prIcon=cloud_composer" parent="1sHCwfxGnrAHTTrKWaEu-1007" vertex="1">
          <mxGeometry x="10" y="12.56" width="45.53" height="40" as="geometry" />
        </mxCell>
        <mxCell id="y1yzruNpIGWwOKtuv_Qm-18" value="" style="shape=image;verticalLabelPosition=bottom;labelBackgroundColor=#ffffff;verticalAlign=top;aspect=fixed;imageAspect=0;image=data:image/png,iVBORw0KGgoAAAANSUhEUgAAArwAAAQ4CAYAAADrSw+3AAAACXBIWXMAACxLAAAsSwGlPZapAAAAAXNSR0IArs4c6QAAAARnQU1BAACxjwv8YQUAAK5ISURBVHgB7P17nF3Veed/PuucKpUuCFUhMLbB1hFxQjAXVfmCUdyGEo5xJ5NACYJz8WugxEznNb9Xp4NgJp04cVolMrE7nQmItGeS9B9WiU7HnthGBZ2YdByjIr+ZhMRuVKSdxI4d64ABBxuoEqBL1Tlnr99a5yJKpbqcs69r7f1520WVpCOpdGrXPt/97Gc9SwQAAAAAAAAAAAAAAAAAAAAAAAAAgJioXh783Hsrw1KWYfuxFqmu9ti+VX79LU9WqwIAAACkoKvA+8LOy+4ORE+YDwclQcuFaKVkzvzC3Fk/J+bHSp31c0EQPLP4x2Uls4GW4yv92aohc+Vy6889vV7mtk9X5wQAAADu0CbBzTw9KCf7x0zaqzR/TqljompPyM6Rard/zJqB9/kfuWyf1s2wWxiLw7E6++MzQbsZpnUwt/gxgQnnqh3OFwdqKtoAAAA9evKb5j+n75ZAJkz+Wlp0NXFN7ZedV+7v5o9aNfAWMewmbE6LnBWSOyF6aYBeHJ477SEEZwAAUAhf/YaSWv3TJteOr/HIo7Lzqnet8ZiVA++x0cpg37w6ah5QEThFvxGWW++VqnYCc6eV48xjTKW5tkmqtGwAAAAvdB92WwK9X95/9cRqD1kx8D67szJWEnVYkCfNCvNyQXlxVdlWlOlrBgAAqTt6TGTh5IQJsft6+F2zsr52mYyMrJhb+lb6BRN8hnub4QAPDKrWwsOK/YHWuvUlVq0vdKn5sUjDvOufF3lu5/ZmNfmsgBwEzyyuIlNBBgAAsQgXdq1BOVEeM+8nV3pAnwCraLe02LdWQDbhOGj/QjMm960eju2PCcYAAGBV4cOupUzwqKz2gNUqvHNUeNGL5cJx++eXDcZ2wV4g6pmyBMfqIs902ilYnAcAQIFEC7tdWTHw1jbIpAkoDwgQs04w1s2PtakYq7PaKc4JxVo/bdsoGlqetpXiS79SnREAAOC/FMKutWoN9zs7KwdMjfhuAdxjWyNmCMQAAHgqzrC7xqSGVXt46wMy0b8gN4hubScMOMQuvhttVomVGgukvfaur1UhNpdyM3aHPi3q6U7LRKkuVcIwAAAOSKmy27Fml66dx9u/oI4QepEXnXaJThimMgwAQIriD7taGsFd8q+umVzpAV0tSyP0ojBMZVhpqdrFdFqCabuQrr5eZpguAQBADJKp7MYTeC1CLwqu2TO8uCpMEAYAoAfJtTHEF3g7nr2uMllS6k4BYJ0Jwp2K8NuerE4LAAB4w9e+JnJCxiWQgxK/+AOvRegF1tBpjdD6afOjaarBAIDCSjbsWskEXovQC/TsrGowUyMAALmXfNi1kgu8FqEXiIwQDADIp3TCrpVs4LUIvUDsWiFY6ye0kpnGgEzTDgEA8Ep6YdcydSO1W6678pGVHhA58Frfua4yoZRKZXAwUER2dnCpubOcnrYTIlgYBwBwlg27x2sjUup/StKhpa5vlA9cPb3SA2IJvBahF0jddKcVgiowAMAJnbCr+h43VddBSUd6gdci9AIZspMhRM2UVDAtDXniLU9WqwIAQFqyCbtWuoHXIvQCbui0QZRKeqqxIE+zGA4AkJjswq6VfuC1CL2Ae5oBWKlpKsAAgFhlG3atbAKvRegF3NYJwA0dPEIPMAAgFG1eTZ6c2S6676mMwm7zs8gs8FqEXsAjyo5CU0+IDqaYAgEAWFMn7Er/4+ZHFcmOlrK8S669asXWvUQDr0XoBbw0Z04O07b/l/YHAMA53Am7zc9GpHaZ7ByprvSAxAOvRegFPEf1FwDQ4VbYtdwIvBahF8iNOfO9PGUXv53ul0fo/QWAAnEv7FruBF7ruZ2VveavfEAA5Ml0uaQnaX0AgJxzM+xabgVe69nrKuMlpdLYVxlA2pTMlLSeVFoeIfwCQI64G3Yt9wKvRegFCoDwCwD54HbYtbTsvKq02gMyCbwWoRcoEMIvAPjJ/bBruRt4LUIvUEAm/JaVPkDPLwA4zo+wa7kdeK3n3lsZlj51xHyY1e4cALLTXPDGtAcAcIwNuzNPD8npvqfE7bBruR94LUIvAKXUZBAEh5jzCwAZa4bdGRN2m5XdYXGfH4HXIvQCsMxptlpSaroUBPtpeQCAlPkXdq1ZE3gvWO0BzgRei9ALYIlmy8Nb/v/VQwIASJafYdfQx2Tn1Zet9ginAq9F6AWwFFVfAEiYt2HX8jDwWt+9rlKpK3VEud8kDSB9VH0BIG5PfV3JfN0uUPMs7FqeBl6L0AtgNVR9ASAmX/2Gklr90+bMOi5eWjvwrrqiLUv2BaxP6132RU0AYAl7May1Hm8odez5H7ns4Heuq4wKAKA33oddS1XXeoSzgdci9ALohg2+ytwR+s7O7ce++/7KnQIAWFsuwm53nG1pWIz2BgC9sBfJfSU9wW5uALCCfIXdI7LzqhtXe4DTFd4OKr0AemEvjhuBmrQXyrbdwV40CwCg5a++pqReu78Ild0OLwKvRegF0Kulfb4EXwCFd/SYSFntM7fC9kqBeBN4LUIvgLAIvgAKz4bdhZMTEuh9ki/VtR7gVeC1CL0AoiD4Aiik/IbdrngXeC1CL4CoCL4ACqPgYdfyMvBandArSmYEAEIi+ALItSKEXS3H13qIt4HXsqG3to7QCyA6gi+A3ClKZVfrfAdea/t0dY7QCyAui4LvPoIvAG/RxnAW7wOvRegFEDcTfCfsHF92bgPgnWKFXd1+W1UuAq9F6AUQt84GFmxZDMAbRazsKjW31kNyE3gtG3ov/atjI4HWhwQAYtIJvvT3AnBaUdsYgiD/PbzLefuT1XFCL4C4Le7vPTZaGRQAcMXXvmbC7olxenaXl8vAaxF6ASTF9vf2zaujtDkAcIINuyfEhF05KMVUnB7e5RB6ASSFNgcATiDsmrirnlnrIbkOvBahF0CS2m0OR22bgwBAmgi7Xct94LVs6DUvSvsFAJIxaNscmtMcqPYCSANhtyeFCLzW256sThB6ASSp2ebQXtQmAJAUG3aP10YIu91TUjDfua4yoZTixQhAorRItU/rXXYLdAGAuHTCrup7XJRiWkzzdFu7THaOVFd7UGEqvB1UegGkgWovgNgRdkMrXIW3g0ovgLRQ7QUQGWF3JVR4V0OlF0Ba2tVe5vYCCIewu7o1wq5V2MBrEXoBpGiwM7eXXdoAdE2bAuZrte1S6n+YsBteoQOvRegFkCY7t7e5SxvjywCsxYbdJ2e2i/Q/bn5UEYRW+MBrEXoBpKmzoO25nZW9AgDLIex2a66bBxF42wi9ANKnHnhu52UPCAAsRtjtge4q8BZ2SsNKnr2uMl5SikHOAFLDFAcAZxB2e6SPyc6rL1vrUVR4l3j7k9XJQOs9AgApsS0OdaWOPPfeyrAAKC7Cbgiq2s2jCLzLIPQCSJsNvdKnjrJRBVBQhN1EEXhXQOgFkAWt9QShFygYwm7iCLyrIPQCyEIz9O7cfph5vUABEHaj0fp4Nw8j8K7Bhl6p6xHpcuwFAMTBvASOMa8XyDnCbnRKzXbzMAJvFy79SnXGhN5dQugFkKLOYjZCL5BDNuzOPD1E2E0HgbdLhF4AWWCCA5BDzbA7MySn+wi7UQX62W4eRuDtAaEXQBbaExwIvUAenAm7zcou39MpIfD2iNALICODdmzZd9//A3cKAD8RduOm229rIvCGYENvWesRuzuSAECKGkEwSegFPETYTYbWz3TzMAJvSHYLULsVKKEXQNoIvYCHjn5DEXYTQYU3aYReAFkh9AIe+aoJu/ONTwthN35aUeFNA6EXQFZs6H35x69hVzbAZTbs1uom7OpxQWYIvDEg9ALIyvxrJydOjN9I6AVcRNh1BoE3JoReAFkI6g05/s/PTsz//I8TegGXEHbT0VevdvMwAm+MCL0AsmBD7yv/9G1CL+CKv/qaknrtfsKuOwi8MSP0AshCY36+GXprvzhG6AWydPSYSFntEy17Bclb392+CATeBBB6AWTBht5Xv/3shP73HyH0AlmwYXfh5IQEmu/BtIyMEHizROgFkIVTL8/Ka8+8QOgF0kbYdRqBN0E29NYH9IgomREASMmrzz4vJ198idALpIWwmxFd7faRBN6EbZ+uztXW6V2EXgBpOv7tZ6VxaoHQCySNsOsFAm8KCL0A0mYnN3z/f31ddK1B6AWSQtjNmKp2+0gCb0oIvQDS1lzE9uwLdutNE3p/+gEBEB/CrlcIvCki9AJI2+sv/Iuc/N73xY5I0r/00wcFQHSEXTdofbzbhxJ4U2ZD76V/dWwk0PqQAEAKmv28p+fth+OEXiAiwq47lJrt9qEE3oy8/cnqOKEXQBpsP+/sN491fkjoBcIi7LpFCxVeHxB6AaRl/vircuKFf+n8kNAL9OprXzNh98Q4YdcZWrTuatMJi8CbMUIvgLTY+bzt1gbLhN6PHNV7xwYFwOps2D0hJuwKF4ouUYrA6xMbes1lyoMCAAla0tpgqGHpX/c4oRdYBWHXXTqgpcE3b/vr6l6t9X4BgATZ1ob5468t+hk1QugFVkDYdVu5zKI1H73tyeoEoRdA0mb/6dui6/VFP0PoBc5B2HVfjQqvtwi9AJJmN6R47YUXl/wsoRc4w4bd47URaWg2bMkJAq+DCL0AkmYnNixawNZmQ+/AU/pXfqYiQFF1wq7qe1yU4gLQZX31arcPJfA6itALIEl2Adur33l+uV/abqpajxN6UUiEXb+sF6Y05AGhF0CSTr740pIFbGcQelE8hF3/jIwQePOC0AsgSa89+/xKv0ToRXEQdn3Uddi1CLweIPQCSMq5Y8rOQuhF/mltrvxq26XU/zBh1ysE3jwi9AJIyipVXovQi/yyYffJme0i/Y+bH1UE/tAE3twi9AJIwhpVXovQi/wh7PpNEXhzzYbeQOs9AgAxWqPKaxF6kR+EXf9p3fWmExaB10Nvf7I6SegFEKcuqrwWoRf+I+zmg1JdbytsEXg9RegFELeT3/t+Nw8j9MJfhN38CPSzvTycwOsxQi+AONm5vLpe7+ahNvQ+pX/p9mEBfEHYzRPdfusagddzhF4AcXrthRe7feiQeQl5nNALLxB2c0g/08ujCbw5YEOv1PWI9DiTDgCWOvHCv/TycEIv3EfYzadymR7eIrr0K9UZE3p3CaEXQARBvdHN4rXFCL1wF2E3v2oBUxqKitALIA5djChbitAL99iwO/P0EGE3pwZKzOEtMkIvgKjsiLIuF68tZkPvU/rff+ROAbLWDLszQ3K6j7CbV40FAm/RdUKv+XavCgCE0MPitcWUaHWQ0ItMnQm7zcoudx3yaudItZeHE3hzyobePk3oBRCOHVEWEqEX2SHsYgUE3hx7y5PVKqEXQBiN+fleF68tRuhF+gi7BaKr0iMCb84RegGEZXt5IyD0Il1f+Xtlwu7DQtgtAFWVHhF4C4DQCyCMCG0NHZ3Qu0+AJH31G0oa6tPmo1EBlkHgLQhCL4BeRWxr6LChdx+hF4mxYbdWN2FXjwuKoio9IvAWCKEXQK8itjV0EHqRDMJuMWnpadMJi8BbMIReAL1YiF7h7SD0Il6E3aLSonXPew0QeAuI0AugWyE3oVgJoRfx+KuvKanX7ifsFpV+RnpE4C0oQi+Abp34XuTFa4sRehHN0WMiZbXP1Pn2CoqpXJ6VHhF4C4zQC6AbtRMnJWaEXoRjw+7CyQkJNMdOkdUCenjRGxt66wN6xLz8zAgALOP0yz0XU7pB6EVvCLvo6KtXpUcEXsj26epcbZ3eRegFsJyg3jBV3hOSAEIvukPYxWLrhUVrCIfQC2A18/FNa1iK0IvVEXax1MgIgRfhEXoBrGQhucBr2dA7oX/ppz8twGKEXZxDVyUEAi/OQugFsJyYNqBYyx5CL84g7GJZqiohEHhxDht6L/2rYyOB1ocEAKTVx1s/PS8pIPSCsIvYEXixorc/WR0n9ALomE+2rWExQm+REXaxuqqEQODFqgi9ADrqyUxqWAmht4gIu1idNsdGz7usWQRerInQC8CqnTglKTOh9yNP6b1jg4L8+9rXTNg9MU7YxaqU6nlCg0XgRVds6NWiHxQAhVVLt8Lbpkakf93jhN6cs2H3hJiwKwcFWE2JRWtI2Nv+urpXa71fABRSigvXliD05hphF70Isa2wReBFT972ZHWC0AsUV/3ESckGoTeXCLvo1UCJlgakg9ALFNdCZoHXaofeX/mZisB/X31e5NVgN2EXPelfqEoIBF6EQugFiqkxn0VLw2Im9DY0odd3trI7/70R8/VkEgd6E2JbYYvAi9AIvUDx1F5PfVLDcrYTej1mw+7x2oiovsdFKVpU0INw2wpbBF5EQugFiqUxf1ocQej1EWEXkYSb0GAReBEZoRcojuwmNSyL0OsTwi6i0hJqQoNF4EUsCL1AcehGXRxC6PUBYRfxqEpIBF7EhtALFMOCG328ixF6Xaa1yGu17VLqf5iwiwi0OZZCLVizCLyIFaEXyL/sJzUsi9DrIht2n5zZLtL/uPlRRYAoNIvW4BAbegOt9wiAXHI08FqEXpcQdhE3rZ6RkAi8SMTbn6xOEnqBfNL1hjiM0OsCwi6SEHKXNYvAi8QQeoF8qp9eEMcRerNE2EVSQu6yZhF4kShCL5A/Qd2pKQ0rsaH3Kf1Ltw8L0kPYRXLmwu6yZhF4kbhFoTf0gQrAHQ738C41ZF7mHif0poSwiyTp8CPJLAIvUmFDr9T1LiH0Armg/ajyWoTeNBB2kTQVLT8QeJGaS79SnSH0AvnQcHvh2lKE3iQRdpGOqkRA4EWqCL1APjTmnV+4thShNwmEXaQl0M9KBARepI7QCyAjNvQ+pf/9R+4URGfD7szTQ4RdpEBH2XTCIvAiE53QqyPeogCQjfppbxauLaVEq4OE3oiaYXdmSE73EXaRDq2qEgGBF5mxobdPE3oBpI7QG8WZsNus7NIignQMKBatwV9vebJaJfQC/tENb6Y0rITQGwZhF1npr1UlAgIvMkfoBfwT+DWlYSXt0PvTewVrI+wiO5E2nbAIvHACoRdARkzolftNpXefYHV/9c9KTvV9Wgi7SJuOng0IvHAGoRdARmyldx+hdxVf/YaS0vynRakxAdL3jERE4IVTCL2AHzzaXrhbhN6V2LBbq5vKrh4XIBtViYjAC+cQegFkhNC7FGEX2TNxgAovcorQCyAjhN4Owi5cUVLHJCICL5xF6AWQEULvX31NSb12P2EXTqgFxyUiAi+cRugFkJHiht6jpphWVvvMjWTGtcEN59VnJCICL5xnQ299QI+Yl5/IBzwA9KB4odeG3YWTExJoWjrgisgzeC0CL7ywfbo6V1undxF6AaSsOKGXsAsX6Xju8BJ44Q1CL4CM5D/0EnbhKiWRq7sWgRdeIfQCyIgNvRP6l37605I3hF24TMvTEgMCL7zTCb1KZEoAZKI8MCAFtSdXoZewC7fFMoPXIvDCSzb0XvLXx3YHWh8SAEhXPkIvYRc+aOhY7ugSeOG1tz9ZHSf0AsiA/6GXsAsfDKhYeniVADnw7HWVyZJSdwqAVGx++yVyvnmDHJTa/L3qwFQsL8qpaFV295mwOyGA27TsvCqW4iwVXuQClV4gXQXu4V1qj/Sve1zvHRsUHzz5TZH51/cSduGJ2C4kCbzIDRt6tegHBQBSpUa8CL1f+5r5VOfHRasHBPBDbBOZCLzIlbf9dXWv1nq/AEhU33oqvGdzPPTasHtCxiWQgwL4oyoxIfAid972ZHWC0AsgfY6GXsIufBXoZyUmBF7kEqEXSFapj5eP5bVD76/8TEVcQNiFv7SUS0clJpyxkFuEXiA5qtwnWIkJvQ2dfej96vMirwa7CbvwVi04LjEh8CLXCL1AMsp9ZcGqtmcaem1ld/57IyZ8528rZBTHeXUWrQHdIvQC8VN9VHi7kE3otWH3eG3EfJEeF6X8GJcGnGtORkYYSwb0gtALxIcZvD1JN/QSdpEfsVV3LQIvCoPQC8SjRHW3V+mEXsIu8qUqMSLwolAIvUB0iv7dMJINvYRd5E2MI8ksAi8Kh9ALRNO3fp0glGRCr9Yir9W2S6n/YcIuciLWkWQWgReFZENvoPUeAdAzengjiTf02rD75Mx2kf7HzY8qAuRFST8jMSLworDe/mR1ktAL9K5ES0NU8YRewi7y7NqrWLQGxIXQC/SujwpvHKKFXsIu8kzHO6HBIvCi8Ai9QG+YwRsbG3qf0r90+3BPv4uwi7xTEtv83Q4CLyDt0Ct6t0j832RA3pQHWLQWoyHzUvx416GXsIsi0PK0xIzAC7S9/a+rU1LXu4TQC6yqbz0tDTHrLvQSdlEM5kCXWBesWQReYJFLv1KdIfQCK2NCQ2JWD72EXRRJQ9PDCySN0AusrEx1N0mt0Pv/+JnRs36WsIuiOa8ee+BVAmBZz723Mix96oj5MNQg9+cHL5Xnt1xi3i496+cvOf6cbD79qlwy97ycP/+qAD7ZePGFMvSDlwkSpUXpPeo//fEhwi4KaFZ2XnWBxIyltsAKbKXXhN5duk8dVl280Lw6cL5MDd8mf3H5h+QfL36nvLb+/LV+SzP4XvHiP8i11b+Ra595Un74X/6REAyn0dKQCiVaHdT//iOiZmYeNWH3YSHsojhir+5aVHiBNXz3ukqlrtSRlULv3257n3zqhrvN++skDjb47n76CyYEP2mqwc8L4JKtV/ygrN86JEieXbnzizs+XP3UD1xbEaAotByQH7nqHokZgRfownKh11Z0PzV6tzx0bXIjfDvh94Nf/xKVXzjhwquvkIEtmwXpsKH31us+IlNvvVyAAtDmf/eawHtAYkbgBbq0OPTa3tw77vhMs083Lbuf/rz8whMPUvVFpt563bvYeCJls/3r5V0f/DdS3RhqOQHgEy11faN84OppiRmBF+iBDb1HLxk+8n/56KFKNz26SbBVXxt8r33mbwRIU6mvLG+57t2C9B25cJvceP0dAuSclvW1C2RkJPYpSQReoAeb/lQPKyWhJzfE6ZK55+QX/vLBZssDkIZ1W86Xi67+YUH6bGvDnnffLIe27RAgxxKZ0GAxhxfo0vrHdMVcIh4WB8KuZdspPnbzb8sH/91fypcv/5AASVu3aYMgG7Y6te8f/1KAnEtkQoNF4AW6YMNuWcsR5eBoIBt8/+1H/sC8/X5z7i+QFDadyFbl5JyMfr8qQG5peVoSQuAF1uBy2F3sy5ffJB/8xf/dVH3/E8EXiejftEmQHVvlveOZxPIAkDUtJTUtCSHwAqvwJewudnjHTzUnSBzecZsAcSr18ZKRtbHv/pMAuVXSz0hCWLQGrMDHsLuUXdj20EM/yygzRMaEBjfYxWuX/et/x4gy5JGWnVcldlXN5TqwjDyEXcv299o2B7sTHBBFH+0Mztgx96IAuaOTW7BmEXiBJfISdhf71PV3N6c50NuLsJjQ4I7tJ2MfUQq4ILF2BovACyySx7DbQbUXUTChwQ22D3GwdlqAnLHdOk9Iggi8QFuew+5ittp7xx1/RLUXPWFCA4BENTQtDUDSihJ2O/5223XNSQ5/wYYV6BItDQASdV6dwAskafCwHiwv6MKE3Q7b4vALH/kDWhywJlvdVX19AgDJ0FUZGUm0OZ3Ai0KzYbe+zlR2+1VFCsq2OIz9mz+hxQEr6lu/TuAG2+g4179egHxRVUkYgReF1Qm7omRYCu7rb35ns8XhHy++QoCl1m3ZLHDHMWbwIm8C/ZeSMAIvComwey7b4rD75/+UFgecgwVrbjnez8QM5IqWcumoJIzAi8Ih7K7Otjh84qaPC9DBgjW3zAy+WYBc0QtPS8IIvCic+oAcJOyu7qH33UVfL5pYsOaW6sYt9PAib+Zk50hVEkbgRaFsekwfNO/GBGvq9PUSeouNBWtueZrqLvIn0XFkHQReFIYNu0rLuKBrtq+XxWzFxoI1dzS3orpwmwC5ksKCNYvAi0Ig7IbXWcx2eMdtguJhwZpbpi8i8CJXUlmwZhF4kXuE3Xh87ObfZoJDAQ1Q4XWG7d+d2UJLA3ImhQVrFisRkGvnfVE/IITd2NgJDtYvPPGgIP/WbTlf4I7pCysC5IuuprFgzaLCi9w67zG9z7zbK4iVDb1UeouBcWTusP27D227RoBc0SqV6q5F4EUuNcOulglBImzo/djN/0mQbwNUeJ1h2xmmL6oIkCPNdZiSEgIvcoewm47DO35K/u1Hfl9eHSAU5RX9u+6gnQG51NCpjCSzCLzIFcJuur58+U1yxx1/ROjNITaccIctg933zusFyJ3z6gReoFeE3Wy0Nqgg9OZN/3n077pi+sJtUt04KECuaJmRkZE5SQmBF7lA2M0WoTd/aGdwg63uHtq2Q4DcUZJaddci8MJ7hF03EHrzZeB8vo4usIvVCLzIIW0SaGoL1iwCL7xG2HULoTcfygMDUl4/IMiWre7uv+IGAXJJSWojySwCL7xF2HUTodd/A4O0M7jAVncfeevlAuTQnFx7FS0NwFo2PtIg7DrMht5f+OnfF/iJ/l03PLRth8z1rxcgh1INuxaBF97Z9EV9Z6m/NCFw2t9uu47NKTxF/272jpnq7iS9u8gnbf73qKSMwAuv2LCrRCYFXrCbUxB6/WLn79K/m61O7y6jyJBbKW440VEWwBOEXT/Z9gYxX7hrn/kbgfvWX7BFNmwdEmTH9u7e9Z5bBMit91+9R1JGhRdeIOz67VPX3y2fuuFugfs2XEDYzRKTGVAA05IBAi+ct/mLeoyw6z8beg+9L/WLevSIBWvZmtnyZubuIt90uuPIOgi8cNqmP9XDpuJxUJALn7zp1+XwjtsEblq35XxRfX2CbNjq7q07bxcgx7SU1LRkgMALZ9mwq5QcMR+yciNHPmFC7z9efIXAPes2bRBk58F3vI+Fasi/gYVUd1jrIPDCSYTd/Hpt/fnyCx/5A3l+yyUCt6zfeoEgG3YM2f4rrhcg17TMyMjInGSAwAvnEHbz7/nBS+WOOz5D6HVIqa9M/25GOgvV2GQCBZBJddci8MIphN3isKH335pKL1sQu2FgC1+HrEy+fQcL1VAEmfXvWgReOGP9Y7oiSg4LYbcw7IzeT37444Lsrd/Kt10WbCvDfe+klQEFkVH/rsXGE3CCDbtlLUeUSEVQKGxM4YbB7dukxISGVNlWhnuu+bA8cVFFgNyz/bvX7nhQMkKFF5kj7MLO6GVcWXbYTjgbtDKgYDKr7loEXmSKsIsOxpVlZ2DLeYJ02VaGe3fcJEBBaGnoRyRDBF5khrCLxRhXlh3GkaXLtjLceP0dTGVAsZxXn5EMEXiRCcIulsPkhvSVBwYYR5ay+664ng0mUDTTWc3f7SDwInWEXazGLmL71A2/KEjHwCBhN02H33K5TFxxgwCFEui/lIwReJEqwi668dD77pJD79sjSN6GC4YE6aBvFwWlJTAV3owReJEawi568cmbfl3+dtv7BMminSEdnb5dWhlQQHPygaunJWMEXqSCsIswPnbzb7OILUHrtpwvitm7ibNh995rPkzYRTHpbMeRdRB4kbjBw3qwL5DDhF30qrOIDcnYdPFWQfLsIrUD77hWgALSUpYpcQCBF4myYbe+To6IkmEBQrCL2D5xE9sPJ2HgfKZhJO3olotZpIZiC2pUeJFvhF3ExS5iYye2eNl2BnZXS5ZdpHbrzo8IUFy6KjtHquIAAi8SQdhF3OxObPTzxmfDVvpJkzTbP8AiNUDUtDiCwIvYEXaRBLsT2x13fIZNKWLCOLLk2EVqt17304RdFJ2Wun5IHEHgRezqA3KQsIsk2EVsbEoRXf+mTbQzJKQzkWH6om0CFJ4D48g6CLyI1abH9EHzbkyAhNDPG91GpjMkhokMwBnT4hACL2Jjw67SMi5AwujnjYbNJpKx34RdJjIATdokzEPiEAIvYkHYRZpsPy/zecMpDww0WxoQr8ltOwi7wGKOjCPrKAsQEWEXWXjpvIvk1fWb5QP//JeC7m26+EJZP8RiqjjZWbs//v6fEwBtWmbkR3b8ljiECi8i2TTVeICwi6zYft6/3fY+Qfc2msCL+Niwa8ePATiLU9Vdi8CL0M57TO9T60p7BcjQx27+bUaVdYl2hnh1NpaY618vAM7Q0tCPiGMIvAjFhl1zSE8IkDE7quwXfvr3BWujuhsfG3bZWAJYjq66NI6sg8CLnhF24Zq/3XadHHrfHsHqNr2JwBsHwi6wGnd2V1uMwIueEHbhqk9dfzejylbBZhPxIOwCq3Jqd7XFCLzoGmEXLrOjyj52y28LlsdmE9ERdoE1zbnYzmAReNEVwi58YFsbPnXD3YJzbbhgSBAeYRfoypQ4isCLNRF24RPb2vCPF18heMO6LefTzhABYRfoihalnJvO0EHgxaoIu/DRL3zkDxhVtsgm2hlCI+wCXZuT664k8MI/hF34yo4q+9QNvyhoGTif8B9GZ1MJwi7QFWfbGSwCL5a16c/03YRd+Ixd2Fo2bB2inSEEwi7QE6fbGSwCL86x6Yv6ThXIAQE8xy5sIuu3Eth6NbltRzPssoMa0DWn2xksAi/O0gy75nwvQA4UvbWh1FeWjW+6SNA9G3b3vPtmwi7QG6fbGSwCL84g7CKPitzasH4ro8h6sf+K65thF0BPnG9nsAi8aCLsIs8+cdOvSxFR3e2eDbsTV9wgAHrmfDuDReCFbPz/1scIu8izr7/5nYXbkKI8MCADWzYLVqfNm63qEnaB0JxvZ7AIvAW36U/1cGlz+aAAOXfo2j3y/JZLpCg2sFhtTbP9A/KuG/9Ns28XQCha6voh8QCBt8Bs2FVKjpgPeWVE7r22/nz52C2/LUVx3lvfLFiZ3VDiXR/8eZkZ5HkCwtNV+cDV0+IBAm9BEXZRRH+77To59L49kndsJbw6ZuwCcVHT4gkCbwERdlFkn7r+7ty3NrCV8Mo6M3YJu0BkWsryu+IJAm/B9B9cIOyi0Gxrwyc+nO+pDRsuYBzZcjpjx5ixC8RAy4xce9WMeILAWyDrH9OVdRf3HxbCLgruy5fflNvZvBsvvlBUX5/gDXZxGpMYgFjZ6u6D4hECb0HYsFvWckSJVARAbrcdZvbu2ezitBs/cAeTGIC4BbUnxCNlQe4RdoFz2daGgca8XPvM30he2Nm7g5e9XdBy5MJtcuvOj8jXN18oAGKk5RH5kR1/IB6hwptzhF1gZXlbwHbeJRcLWg68430sTgOSoaWkJsUzBN4cI+wCa8vTbF4Wq7X6de+55sPm7SYBkARd9WEr4aUIvDlF2AW6Y2fz/sXlHxLfbdg6VPjZu51+3QPvuFYAJMWf2buLsZQ3h3wMu7qum2/Nj+eD9s+Z9w19zmOD9q9bpYFlrtnKSlRf6+eVPcLLrY9L67m+w/I+edOvy7XVv5Hz518VX218U7H7VA+/5XK56z2MHAMSZl6Ua/eJhwi8OeNa2G0G2fmGBKcD0QtB8700fy44E1z1ogCbBmVCsmqGYtX8WPpaH9vwrAbKzZDceq8ExfD84KXy0HV75Bee8GrKzhl2sdr6rcVsZ7CXxPde82GqukA6pmXnSFU8RODNkSzDrg2ywas10aYiG7xuAu6JRjPgdqq2LrEBu5vPqhmI15Va7zeVmxVi++PmewJx7tgFbLtnPi+XHH9efDMwuFmKyLYw3PXuW2T6om0CIHFaSnJIPMUrdk6kGXaDE/VmoG2Yt+B43dlgm7RmVXhj+UwYLm3sa1aHS5u4jvTVtc88KQ899HPimze/Z0fh+nftyDHbwsAUBiAt+pjsvPoy8RSvzDkweFgP1gM5bC5fKhIzG2RtwK2/Yqq3NuCebBQy3C7HPg+NV+si9m2R5YJwaRMVYR/YBWx2BzafZvOu23J+ocIuLQxAVvxcrNbBK7DnmmF3nRwxX8lhiUnjeE0CE+IapnrbWBLmEJ7tFy5vagXh8vn9hGBHXTL3nBz+Lz/hzQK2oR/aXpjd1WhhADJjF6td5mv/rsVOax6LK+w2K5UvLUjthXlZ+OeTUn9xoRl0015Mlnu2v/lU0LyYqH/fPN/Pn5b69xaaP9Y181wH7b7hEiE4Sz7twGYXqw39kLd3GHtipzD8+L/6OXZNA7Lg4c5qS/HK6qmoYbcZcl9ZaAUu2hScYtshbPW3vKXVCkFPcPo2n35Vvvy71ztf5T3vrW+WLTnfSthuJHHfFaO0MADZ0VLXN8oHrp4Wj1Hh9VCUsGvbFRa+dVJqz56S+ku1VhWXQq5TdE03L0Iar9Sa1fbFVWBVkuakCCRroW9A5vvWyQf++S/FZRdc/gNS6svvBdHRLRc3twf+s4t/QABkRVfl/VffI56jdOShBaUPlpTqOuw2JyqYam7tu/NUcj1kL0rq9sLEBGDLtj2UzzfVX1MBbr6nApyIh953l/zoN77kbGtD3ndWO/CO97E9MJA9LSW1X3KAlgbPbHpMH1Raxrt5rK3m1r5zmoVnOdcJwOUL+mmBiJnLY8ouvPoKGdiSv/m7LEwDXOL3KLLFeGX0SDdh11Zw6989TTW3QJpfc9v+0KkA22kQZwJwH1sqR+DqmDK7WC2PYddWdfdfcT3bAwPO8HsU2WJUeD2xVtgl6GIlb7Q/9DcXwqE3dkzZl//z9eKSvI0io6oLOMn7UWSLsWjNA6uF3WbQff60zH/zhDTm6ixAwzlsD3BnFFpzAdyJRnNEmpRLzAHugh1Ttnn+VRl+fkZcMbh9W24WqzFuDHDWpOzc4e1Wwkvxaue48x7T+8w11sTSn6eiizg0Wx+29rP4bQ0ujSnbePGFMvSD/rfU2XFjtqo79dbLBYBzclXdtajwOmy5sEtFF3Gy1V97HJ0ZfzYfNDe+oO/3bHZMmSubUWy94ge9r+7aqq4dNzYz+GYB4KRpU919UHKECq+jlgu79ZcXZKF6ih3QkLjFC9/6tq4TuFHlXbflfLno6h8WX9GrC3ghFxtNLEWF10FLw67tuZz/pxPNrX+bvZdA0hrtzS9erkn9u/PNjy276UVRtz52YTOK87e9Vfo3bRIf2QkMP3ftrfTqAq7TMiP/6uqPSc5Q4XXM4rDb6dNd+M5pAVzRZ6q+5ebbukIuevvy735ALjn+vKTNjiJ783t3iG+o6gJe0VKSPfK+q3KzWK2DwOuQxWHXbhox/62TtC/Aac3we9G6QrU9ZLUZxeBlb5dNb/Wr53X/FTeYyu61zNUFvJGfjSaWYlm2Izph11Z1a9851Zy+ALius+HFQt9JKQ/1F6LnN6vNKNZfMCS+OHLhNrn3mptYlAb4JTfbCC+HCq8DOmHX9uqe/vrrVHXhtc6Ct743DeR2o4u0q7y+jCKzo8buu2K0WdUF4Jv8VnctKrwZ64RduzBo/thJAXxnL9iam1yYt0747X/rQK7m/KZd5T3/bZeI6w6+fYfcu+Mm2hcAP+W6umtR4c2QDbu6pifmTVW38WpdgDwrbSy3gu/5/bmY85tWldf1UWRHt1ws917zYRalAV7Ld3XXosKbkU1/pu8OXmtM0MKAorCjzexCTKvV8rCu2fbgq7SqvJsu3iouon0ByI3cV3ctKrwZ2PRFfWfju/OTC985xbbAKDQ71swudvO13zfpKq+ro8hoXwDyJP/VXYsKb8ps2K1/53Qz7AJF15w1vajfd93b1nvV8pB0ldduNOGS6Qu3NUeN0b4A5EYhqrsWO62laNPD+s6Fb70+WXuRkWPAORpaGq+0dnbTJxoigfZiodvzg5fK7qe/IHGz1d3z336JlPqyfw5s+8KvXvWj8r+N/LhUNw0KgNyYluuuulcKgApvStb/Yf3O019/dbKzRSuAlZ2Z7/ud060pD2/b4GzVN6kq78DgZimvz77H2W4JvP+K62lfAPJHm7JnIcKuRQ9vCsqfeHVMN4LDLE4DwnN5odslc8/Jl//z9RKnN79nR6aB124ecdd7bpbqRiq6QE4dlJ1X3SUF4f9sIMf1P/D6sJ5vHCTsAtHY0X12ysPJ/3lc5r95QoLT7nxP2baGwztuk7jYjSayCrt2zNiuD9whN15/B2EXyC8tUrtPCoQKb5J+dXZYlfQR8xGvGkACXKr6xlnlfdPIldK/aZOkaa5/QPYzZgwoikJVdy16eJNC2AUSZ6u+9s2FXl9b5Y2jl9duNJFm2LVB98F3XNcMuvTpAoVwrGjVXYspDUkg7ALpaujmxhadCQ+qv5RJ8I1jYoMdRZZW4H3wHe+T3Ts/In928Q/I6TL1D6AAtPnfffIjO/5MCoaWhrhNzFZUXR8Vwi6Qqazm+j700M+GrvKmtdGEnae7hwVpQAEVY5OJ5bBoLU427Nao7AIusAtF7SK3U0+lu8jtUzfcLWElvdGEDbp2QdouFqQBRVSYTSaWwz2suHTCrpKKAHBKZze3NBa5LZ3L+43yBnmuvF5eKvXJSfVGF9mFQU1+qH5SLm+0dl201d2Nb7pIksAOaQCMSXnfVYekoAi8cSDsAl5YvMgtyXaH37/u/yov/su35MsDF5iQu/afv3PhuHz04vgXjFU3bpF7rvmwTL31cgFQaIUbQ7YUPbxRTcwOtsPusADwTt9F62Kb7tA3f0IumZkyb4ebH/fqR4fWyc+Z6vPF66J9LjboTpiK7qFtyfcDA/BAoPfL+6+ekAIj8EakPv7yYfPfMQHgtc5Ys/KWcDe+1r/6olzzhV+W9a+9KFHYsPvzb1kv15nqc6+YpQvgXMVdqLYYgTeC0sdn92nREwIgNzrTHXrp840r7C72c29aLx+9uLvPgVm6AFagzf9vNIF3WgqOwBsSYRfINxt8+9+0TsoXDaza7pBE2O2459KN8qNDK1d6CboA1lC4HdVWQuAN42Mvjaly6bAAKITV+nyvPTieSNi1NpWV/Od3nHdOTy9BF0AX7I5qpro7UhUQeHvGxhJAYdnga1sdOn2+2/7mv5m3P5QkXb2pT/7jZa2d1+xitAPveF9zMRpBF8AqtJRkT5HHkC3FWLJevDF+jLALFNDieb6bNx9vTmNI2v86UZf/rs+TL7znRqYuAOhWoWfuLofA2wNVDx4QpSoCoNDsLN/Bb/7voUaPhfGbr6+XvyHsAujOsaLP3F0OWwt3yS5SY/wYgI7Ki49JWrZW/1n6Tp8SAFiDbWXYT9/uuQi83fjYS2NMZADQsWH++7Jh4fuSpktnvioAsAZaGVZA4F2L7dstlR4QAGg7/9Qzkrbz/+UFAYBV0MqwCgLvGlRNHxYlFQGAts0n0w+8G46/IgCwArvBxF20MqyMwLuKZt+ukmEBgEX6GyclbRvnCLwAVhDo+9hNbXUE3pX82uwofbsAXLGwfoMAwLn0MXn/1ROCVRF4l2P7dkUfFABYRq28UdJWJ/ACWErrWXN2uFGwJgLvMkq1xgR9uwBWcmrgIklbbYDAC+AsWsrqHvp2u0PgXepXXxrXqnSnAMAKXtl8haTtlcoPCACcYft2GUHWNQLvYraVQZX2CQCs4tS6i6SeclvDiz98pQBA21H6dntD4F1E1fVBWhkAdOPYxT8maTn+5rfKqcELBACkNW/3VkFPCLxtpY/P3m3ejQoArGXTy/Lsj52Q+gYlafjurg9LqVwWAIWnJTBhl77dnvUJmq0Mus4IMgBrMEG3dPUXRV32pDTMD5+5fr38wP84JUma33qhzI5+SLaYjxdOnpTTr78ujXpdABSONv+7V94/MiPoGYFXWlMZtCoNCgAs503/1Aq6F3/zrJ9+5voBeevfzsuG2UCS8vf/918/8/G6jRubb/X5eZk/daoZgAEUhF2k9v6rDwhCSed+nMt+9aVxVSoxcxfAuVYIuotteCWQnb/zqvSd0hK36kf+z/LdD67cKxw0GnLqtdcIvkD+HZGdVzFvN4JiB147laGmj7BQDcBZugi6i21+viHv/f+8Fmvo/c5P3ibP/cRtXT3WBt+aqfiePnGi+TGAPNHHZH39XTIyMicIrdCBt/RrL00ycxfAGbZH97r/2nXQXcxWet/z/34tcntDfePGZtBdrbK7GlvttVVfgi+QC3Yiw40sUouuuIHXVnfr5qoJABYtRovChl67iO2tX1mQMI7/0BXyz+P/N5nfGn0nN/p8Ac/ZbYOVqewSdmNR2MCrfu2VY7QyAAXXf1JK7/5C5KC71PoXFuSyR1+Xi6vmr1hY+zT78lu0PD92h5wYjn+2b6fP1wZgqr6AN7T5v6nsXj0tiEUhpzTYmbtadEUAFJMJuuqHj0jph6ebH8fthCzI391gXq9uELngu1q2vqDk/JfNCbdd+K2vEzm5WeTVrVpe3GZ+PGB+bcNXZLPEH3jt/N5Ng4Oig0Bqp0/T7gC4z5w8grtk5zXTgtgUr8LLQjWguBIOupauNaTxrXBrS867/D9I/+Z3StJstdcucLMBGIBjAr2fbYPjV7gKb3vmbkUAFIq63ATda76YWNDtCL4ffiOK0y98XvpN6E1a38CAnGfeaHcAHEPYTUyxKrwsVAMKR136dLNP1y5MS1qU6m5HWlXepdjFDcgYYTdRharwmrDLBhNAUfQ4SzcO+pXoLQJpVXmXYhc3IEOE3cQVJ/D+6kvj5r+jAiDfIszSjSp4Ldw4ssXqr/2D1MxbFlVey7Y72LcNmzc3wy+L3ICEEXZTUZiWBsaQATlnF6Rd80UpXX5EshDMzUvw3dclDn0m7G7OoMq7Eqq+QEIIu6kpRoXXVncJu0Buqav/NNHJC90IXorv7866yrsUVV8gfqW+8v7gvVdMCFJRlryzC9UCddAE3kEBkC9v+icp/+iDoi79O3M2q0lWbHVXH5+XOAUL35eBC28Ql6hSScr9/bL+vPOkf9068xNKGrXsnnfAR6qkZN2GDfvr7/qhCUFqcl/hLdXlTk11F8iXDPt0lxN32LVcq/IutbTqy4QHYG12I5gNWzZPnrj80glBqvJd4TXVXWnoA1R3gZywfbpX/rmUr/8vos57RVxgR5EFLybTSuFilXepTtV3YNMmWbd+vd0iqrmrm9ZaALyhvevh5OuXX7JHkLpcV3jZZALID3XZk615uv1uLZyKstHEWlyv8i5lg6/dxtiyC9zmzVt9IfrkCsB3duTf+s3nTb562ZsIuxnJ75QGNpkA8iGDebrdimOjibW4NrGhV3ZxGwvdUGTrN2+WjZvOm3xl+1bCboZyW+FtV3cFgKcyHjPWjTg2mliLb1Xepext3M6mFnaB2+kTJ9jKGIXQbmGQ/v51hF0H5LPCS3UX8Jqr7QtL1b81K1ILJGm+V3mXU7NzfU3wZbYv8qhv3TrZNDRkQ+/R2W0XvEuQuVxWeKnuAp5ybPrCauwosjTCrmWrvPMvPeH8ArZe9G/Y0HzbeP75Ujt9mn5f5MbGLVuaiziNozpQNwqckL8KL9VdwD+2feGHj2S+eUQv0qrudpTWXSRbrvnPkmedfl/CL3xkWxjOu+CC5uJNaYfdue1DyTb5o2u5q/BS3QU8YzeP2PmHzequL/TJWqph17Ijyk6/+Jisv/jHJK8W9/sSfuETW9G1M6ntmD4h7DopXxVeqruAPzxYlLaSxguvJ7LZxFpUeZOp8v5u832R2PBre35t+GVzC7jE9uraFoZ2Vdci7DoqVxVeqruAH9SlT7cWpXlU1e2wo8iyCLvNv7txolnl3fDWn5IisZXfgfPOa75R+YUL7PbAGzaf3+nV7Thmwu6thF035afCa6u7NX1E2EYYcJep6pZ2/mEz8Poqq+puR1GrvMsh/CILS9oXOo61K7tVgZPyU+GtBWOiVEUAOEldfkRK13zRm0VpK2n272b59xe0yruc5Xp+F06fNuF3XnTA1saIl21fsEG3b2Bg6S8Rdj2Qm8CrRN0tANzj0aixtaQ5imw18ybwDmy9QUoDFwlaFodfq1n5PXWKTS4Q2SpB1yLseqIsefCrL42rkhoXAE6xVd3yvzoo6vwXJQ+CF14XaThQOdS15tSGdRf8iGB5pb4+Wbd+vaw/77zm+7L5sdaa8IuuNTePGByUDeef3zyelkHY9UguKrxKlfYJAHfkoFd3KdvKoOfdCUu1ua96veVwmuwKevu2eNFbbWGB6i+WtUZFt4Ow6xn/F619/KUxJaXDAsAJzQkMdq6u5726S2W9WG05edxyOG2NWm1R7y8L34qsy6BrEXY95H2F14RdencBF3g8V3ctWY4iW43dcpgqbzSLq786CJoBuBl+TQhm5m/+2fFi6zZslIGNGxfP0l0NYddTfld42WgCcIOHu6X1wi5WC777urjIbjl8/pX/kTFlCbDtDg1T9V2w4de8JwDnh63m2t5uu8hxyXix1RB2PeZ1hZeNJoDsqXd/PpdV3cWCl9xtz+hsOcyYsvjZyQ+lDRuk37xZnQDc6f8lAPulU821QbeLtoWlCLue87fCS3UXyJap5pav/y8iQ89JntnFao1nXhWXsRlFNjotEG8E4Brzfx0TMeR2zJqw+y7Crt/8rfAuNEalRHUXyEJeNpHoRnP2ruPsZhSnnv+8bHz7nYL02FvhNkQ1g9Tmzc2fswG4E4Jpg8iGrcz323aFaCG3Y5bKbj54G3gZRQZkwC5Me88XpLT9SSkCVxerLWf+e49J/9B7WcCWsc4iuM4GGJ0qcCcEByYAE4LjZau45b7+ZsC1QXeFmblhdMLujMB7frY0MIoMSN/Qc60WhpwuTFuO7d0Nvn9KfMGYMn80WyBsELZ9wfY97RBd6wTcfltdX7eueYGh4r/jS9jNGS8rvEoU9+2AFDVbGN79eSkaH9oZFrNjyhbmviLrBt8rcNuZVohFFleDCcJvsLvk2VDbZ9/Mc9bl+LAoCLs55F+Fl8VqQHpyuGNat/RrC9J47jXxDWPK8scGYTshwrZD1M2bfW9/3AzIOWqPsL23Nsx23ve120NSptsL1Ai7OeNdhZdRZEBKCtjCsFjwmp+7bjGmLH/s7fqyfTPhb7n4tzgAN4Ox1mf9nLY/zngLZduGoFTr36CUavbZNse+mY+bIbfPiThiwm5w19z2Cwm7OeRd4NVSukEAJKpIUxiW49NiteXMm8A7sPUGKQ1cJMi/ZnjsMjDaIGwDsA3CVqMdhJcG4qCLyrEN4ot7Z22Abb43Idb+/JkfuxFm19IJu5OCXPKrpYHFakCycrw9cC9c3lmtWyxgA7pG2C0Aryq8LFYDElSQjSS64fLOat2yC9hq5o0xZcCqCLsF4U8z7MRsxUTeMQEQvzf9k5R//D8SdqW1s5rUAsmDk8d+r7kpBYBlmbCr7yXsFoM/gdfurAYgdrZft/yjDxa2X3cp30aRraazgA3AuVSg75vbvvWAoBC8CbzsrAbEzPbr7vyvhZyvuxLfF6st5/QLn5dg/vsC4A0m7O5/ZfvWCUFh+BF4f212VJRUBEA8bL+uqeoWZYvgbukT+dzy9UT19wRAC2G3mLwIvCVpjAuAeNj5uraFgX7dc+StutthF7DR2gAQdovMi8DL7F0gHspUdJtht6CbSaym2c5gF6zllG1tYAEbioywW2zuB95ffWmcdgYgOnX1F6W087+yOG0FwfdPSZ7ZsHvy2YcEKCLCLpwPvKqkbhEAkTQXp139p4KV5bm627Hw8hPN2bxAkRB2YbkdeJm9C0RjqrmlDx5gcdoa8jR7dy3M5kWREHbR4XbgZfYuEJ6dxPDj/1HUxd8UrC5Ps3fXYmfznnqeUXTIP8IuFnM68KpSia2EgTDaY8dYnLa2PM7eXcv89x6jtQG5RtjFUu4G3mY7g4wKgN7YsWN2m2DCblfyOnt3Lba1AcgjE3YnCbtYyt3ASzsD0LPm2LEf+ySTGHpQtOpuR7O14QVaG5Av7bC7R4AlnA28tDMAvVGXH2mNHUPX8j57dy12Nm/jZFWAPCDsYjVuBl7aGYCeNGfsvptqXa/0a8UNux1sO4w8IOxiLW4GXtoZgK41wy4zdkMJXsn3ZhPdaJx8htYGeI2wi244GXhpZwC6Q9gNT8/XCzN7dy20NsBjR1+Ze/YeAdbgXuClnQHoCmE3muDl04I3vP6t32FDCvjmqA7UjTIyMifAGtwLvLQzAGtiq+DoirxYbTlsSAHPNMPu3PYhwi664lzgpZ0BWF0z7LJVcCRF2kq4F2xIAU8QdtEztwIv7QzAqgi78SjSVsK9Onns92ltgMsIuwjFrcBLOwOwIsJufGhnWFmw8D1aG+CqYybs3krYRRhOBV5VUrcIgHM0F6gRdmNBO8PabGvDwtxXBHDIsXZltypACI718KoxAXAWpjHEi3aG7tjWhmD++wI4gLCLyNwJvB9/ibALLEHYjR/tDN2xfbzswgYHEHYRC2cCb0kLgRdYhLAbP9oZelN/7R/k9IuPCZARwi5i40zg1VK6QQA0qcuPEHYTQDtD70595xCjypAFwi5i5UbgnZgdFiUVASDq0qel9G5WySeBdoZwGFWGlBF2ETs3Am8toJ0BsIaek9LOPxTEj3aG8OyoshPH6OdFKgi7SIQTgVcpRTsDsOllKV//X0T6TwriRztDNLW5r9LPi6QRdpGY7AMvu6sBrbD7ow823yMZtDNEd/qFz0vjZFWABBB2kajsAy+7qwGtyi5hNzG0M8TD9vG+/q376edF3GYJu0ha5oG3pKjuotiUXaA29JwgObQzxId+XsSMsItUZB54GUeGImvO2r38iCBZtDPEi35exKQTdmcESFi2gffXZkcZR4aiao4fY9Zu4vR8nXaGBDCfFxERdpGqjCu8wbAARbTpZSm9+wuC5OlXFwTJOHns9ySY/74APSLsInWZBl6l1C0CFE3/SSYypEi/RuBNSrDwfXn9n39HgB5oHTRuJewibdkF3onZQWEcGQpIXfNFwm5KdK0her4hSI4dU3by2UMCdMGE3eCuue0XTQuQsuwCb51xZCgedfkRFqmlSJ+oC5I3/73HWMSGtbTD7oWTAmQgw5YGNSpAkTT7dj8vSI8+zjiytNhFbGxKgRUQdpG5zAKvErYTRoF0+naRnoZmHFnKXv/W77CIDUsRduGEbAJvazthJjSgMOjbTR9hN32tRWz/L3ZiQ4cJu/pewi5ckE3grTcIuygMddmT9O1mIGA6QyYaJ5+Rk88+JIAK9H1z27ceEMABmQTekpYxAYrA9u1e/UVB+qjwZmfh5Sfk1Av0qxeZCbv7X9m+dUIAR2QSeLUq7RCgAJphl1aG1LG7WvZOm8C78NITguIh7MJF6Qde+ndRELaVwb4hfYwjc8OJ6u8xuaFgCLtwVfqBl/5dFAGtDJlidzV3vPaN32ByQ0EQduGy1AMv/bsoAloZMsQ4MqfYiQ2vfeM+Qm/OEXbhutQDL/27yDtaGbJF2HUP48ryjbALH6QbeOnfRQHQypAtxpG5iXFl+UTYhS/SDbz07yLnFK0M2TvNgjVX2XFlJ589JMgHwi58knJLgxoVIK+aC9X+VJAdXWuInm8I3DX/vceY0ZsDhF34JtXAq0TdIEBO0cqQPcaR+cHO6CX0+suE3UnCLnyTXuCdmB0U+neRV6a6y0K17LFgzR9sTOGndtjdI4Bn0gu8NcIu8ovqrhsIvH6xG1MQev1B2IXPUmxpCEYFyKOLv0l11wFsJ+wnG3prr/2DwG2EXfgutcCrFP27yKfSVSxUc4E+xWI1X5341u+wBbHDtFKHCbvwXZqL1mhpQP7Y3l1T4UX29OvM3/VVaze23yD0uumoNOQuATyXTuCdmLVhd1CAnKF31x2a+bteI/Q66agO1I1z24fmBPBcOoF3gQ0nkENMZnAG/bv5QOh1CmEXuZJK4C0pGRUgZ6juuoP+3fwg9DqBsIvcSSXwalXaIUDO0LvrDsaR5QuhN1OEXeRS8oGXDSeQQ81Whk0vC9xA4M2fTuhdmPuKIDXHTNi9lbCLPEo+8LLhBHJIXfK0wA261qB/N6ds6LUjy9icIhXH2pXdqgA5lEJLAxtOIGfsYrW3/Z3AEafp3807uznF6RcfEySGsIvcSzzwKiX07yJX6N11C+0MxXDqO4fk1AufF8SOsItCSKHCq0YFyBHaGdyiqfAWxmkTeAm9sSLsojCSDbwTsxVhwwnkDBVet1DhLRYbek8+e0gQWZWwiyJJNvDW2XACOWPD7rpTAjcQdotp/nuPyav/8MvNRW0IxVZ2dxF2USTJBl6tCLzIFTX4nMAdtDMUV+PkM/Lq3/+KBPPfF/SENgYUUqKBVyl1gwA5ot70TwJ3UOEttmDh+/LaN+5jg4ruEXZRWEkvWqPCi1xR570icMgCFd6is6H31X/4FcaWrY2wi0JLLvCyYA15NERLgzMaWvQ8gRctjC1b1SxhF0WXXOBlwRryhv5dp+j5ugCL2QkOtsWBvt6zEHYBSTLwsmANeTPAdAaXsGANy6m/9g+E3jd0wu6MAAWXWOBlhzXkjdr0ssAdLFjDSmxf7/H/9e+K3tdL2AUWocILwE8sWMMabF/viWO/V8R5vYRdYIlkAu/E7KAoqQgAJIEFa+jSwstPFG1er9ZBcBdhFzhbMoG3xjgyAMlhwRp60WlxKMAUh3bYvXBKAJwloZaGgMCL/FnYKHADC9YQhp3icPzv/l1eq72dsDspAM6RSOBVSthhDbmjZy8ROKJG4EU4Oa32EnaBNSRU4VUVAfLmxFZT5d0gyB4VXkSVo2ovYRfoQlJTGmhpQC7p2UsF2dOn6eFFdDmo9pqwq+8l7AJriz/wTswSdpFb+ns/JMhYQ5ukogWIS6faO//SE+ITFej75rZvPSAA1hR/4K03KgLk1fd+UJAtJjQgCbbae7L6e97s0mbC7v5Xtm+dEABdiT/wsuEEcky/+IPNN2SH/l0kyW5NbNsc7IYVrgZfwi7Qu9gDr1KKCQ3INf21/5MgQ0xoQArshhUuBl/CLhBOEovWBgXIMaq82aLCizS5FHznv/vo7CszH50UAD1TEqeJ2UFV17MC5N2ml6X8Y58UWXdKkK7Gt+fYVhiZ6R98jwxc/OPSv/mdkqaT33lI5l/8ov3wmJRKN8ruP6sKgK7FG3h/bXZUKX1EgAJQF39TSh9kgXTa6v/4sgBZK627yATfH5N1g++V0sBFkhRbVT5R/b1mb/EihF6gR/EG3o+/NKakdFiAglDv+P/Nla79DG08KbETGhrfPi6AS/pMtXfd1huaVd+4wq+un5DT33vMVHUfE904sdxDCL1AD2IOvC8fUKLuFqAY5nSgdpV/7n8bViV1UJA4fbImjWdeFcBV5Y3bpLyhIv1D72lWgfs2Vrr+vTbk1l7/B1l46S+bFd0Vgu5ihF6gS7EGXvXxV2w7w6gA+dcMu/KJoRn7g/LXfmac0Ju84JXTEry4ZggAnKHKm5ohWJU3NgOw6tt01q/bkKsbJ6Vugm7IRXGz0tA3yke+NCMAVhR34D0qbCuMAjBhd6QTdjuaoVeVHhClaXFIiA27NvQCOAuhF1hDfGPJJmbtizxhF7mnVbBnadi1Gld9dlJp2WUeMCdIhK4FAuAcQ1JWj8sff4jXYGAF8QXeGmEX+dcMu79x4eRKv1676o9mCL0JWmAcGbACQi+wivgCr2pwGxe5tlbY7SD0JocKL7CqVuj93I+OCoCzxBd4teKqErnVbdjtIPQmJNACYFVDUio9Lg/fdKcAOCO2wKuU7BAgh7TW9/QSdjs6oddEtKogMjuDF0BXlGg5SOgF3hBfhVdURYCcMWF3v/zm1tDbqdnQ21Ca0BuHBtVdoAeEXmCRGAMvi9aQL+2wOyFRXfHZKqE3BgReoFeEXqAtnsA7MUvYRa7EFnY7CL2RsWANCKUVer/w4b0CFFg8gbcmTGhAbsQedjsIvdHUGEkGhKTMme1+OXzTPgEKKqaWhoAKL3IhsbDbQegNTdPSAEShJJB9hF4UVTyBV0lFAM8lHnY7CL3h0NIAREXoRWHFEniVKEaSwWuphd0OQi+AbBB6UUhxTWmghxfeSj3sdhB6e0MPLxAXG3onCL0okrgCLz288FJmYbeD0Ns1eniBmFHpRYFED7yMJIOnMg+7HYTe7rCtMBA32htQGNEDLyPJ4CETdg85EXY7bOidHxgRLTOCc1HdBZJC6EUhxNDSwEgy+KUddsfFNSOTc/WFgV2E3nNpqrtAkgi9yL3ogZeRZPCIs2G3g9C7vICRZEDCCL3ItciBl5Fk8IXzYbeD0HsuWhqANLSmN3zhQ58WIGfimNJADy+c503Y7eiEXtHTAgCpUnsIvcibOAIvPbxwm62UnijtFd/Y0PvOz+7SgRySoqPCC6SM0It8iRZ4f3m2IoDLTNjVJ9QuOTA0J55qXPWZ8cKH3gY9vED6CL3Ij2iBt48Fa3BYDsJuB6EXQDZs6L3pYTk4SvsivBYt8OpGRQAX5SjsdhB6AWRkt2xe9zihFz6LFniVqgjgmhyG3Q4beiWQBwUA0qRkhNALn0UKvEoJI8ngFi1VXVe78xh2O+pXfWav2G2RASBNhF54LOKUBsVBD3e0wu4u+a2hquRc/crPThQp9Ooai9YAJxB64amIPbwsWoMjChR2O4oWegE4ohN6D//rigCeiNjDS+CFAwoYdjsIvQAyYUNvEBB64Y3wgXdilg0nkL0Ch92OQoTechx75ACI2XZCL3wR/lWkxpbCyBhh94y8h15F3gVcReiFF8K/jDCDF1ki7J6D9gYAGSH0wnnhAy8zeJEVwu6KCL0AMkLohdOi3CisCJA2wu6aCL0AMkLohbNCB16l1DYB0kTY7RqhF0BGCL1wUpQKL4vWkKY5wm5vbOjVgd4jebCuLAC8QeiFc6IEXsaSIS1zOiDshtG46rOTuQm9AHxC6IVTwgXeiVmqu0hLK+x+YmhGEEouQm9ZCQDvEHrhjHCBt0Z1F6kg7MbE+9BbYhAv4Ckbep+SP/4QuQGZCvcqohpUeJE0wm7MmqG3LrtFqznxjCpR4QU8NmTu0jxO6EWWwgVerSoCJEg3gj2E3fg1rvnMlNKyy7vQS0sD4DtCLzIV9j4hFV4kRisTdj954ZQgEbWr/mjGx9Cr+mlrADxH6EVmQr2CKCU7BEhAM+z+xoWTgkT5GnoBeK8Vej9/05gAKQpZMlFUeBE7wm66vAu9/cziBXJiSJQ8LA/fdKcAKQnZw8u2wogXYTcbndCrRariOloagDxRJkscJPQiLSGnNBB4ER+t9T2E3ezY0NtQ2vnQq1i4BuQNoRep6T3wsukEYmTC7n75za0HBNm64rNV50MvLQ1AHhF6kYowFd6KADFoh90JgRscD72KjgYgr1qh9wsf3itAQnp/CakxkgzREXYd5XLo3dAnAHJLmVeG++XwTfsESEDvgVc3KgJEQNh1nKuhl+2FgbxTEsg+Qi+S0PsriFIVAUIi7HrCwdDb3HiCLYaBvCP0IhEhAi8tDQiHsOsZV0MvgLwj9CJ2Pb96mPrKNgF6RNj1lGuhdz19vEBBEHoRqxDlEnZZQ28Iu55zKPQyixcoFEIvYhNi0RpjydA9wm5OtEOv+f6fkQypAWbxAgVD6EUswvTwVgToAmE3Z0zorS8MZBt6GU0GFBGhF5H1FnjZZQ1dMmH3EGE3h0Ym57IMvaqPCi9QUIReRNJrhbciwBraYXdckE9Zht6yYlIDUFw29E7IF266X4Ae9fbKwS5rWANhtyCyDL0b+wVAod0jX/jQpwXoQW+BVzUIvFgRYbdgOqFXZEpSpBhNBkDUHkIvetFb4NWqIsAytKgpwm4B2dD7zs/s1oEckpSo9fTxArAIveher81wVHhxLntb+3XZIyisxlWfGU8r9KoBKrwAOgi96A6L1hCNCbv6hNolB4bmBIWWWui1C9eYxwvgDBt6b3pYDo5SlMOKegq8Sim2FcYbCLtYIq3QqzaxcA3AWXbL5nWPE3qxEub7IBzCLlZgQ68E8qAkSDGpAcBSSkYIvVhJj4vWaGmAEHaxpvpVn9krdqe9hBB4ASyL0IsV9DiWjMBbeFqquq52E3axlvqVn51ILPTSxwtgJYReLKP7wMu2wmiF3V3yW0NVAbqQZOiljxfAijqh9/C/rgggvQTeU4wkKzTCLkJKKvSqzesEAFZkQ28QEHrR1H3g7aOdobAIu4goidDbnMdbUgIAq9hO6IXFlAasjrCLmMQeem0fL9sMA1gboRc9BF7dqAiKhbCLmMUdemlrANAlQm/BdR94laoIioOwi4TEGXpLWwYEALpE6C0wWhpwLsIuEhZb6LVtDczkBdA9Qm9B9RJ4K4L8I+wiJTb0BkHjHomItgYAPSL0FlDXgVcptU2Qb4RdpCy46o8P6EDvkQhoawAQAqG3YGhpQMec1mo3YRdpa1z12clIoZe2BgDhEHoLpIcpDbQ05NicDkxl9xNDMwJkIGropa0BQEit0PvHHxoW5FoPUxrYaS2nCLtwQpTQ22xrYBMKAOFsN3eKCL0510tLA4E3fwi7cEoz9NZlt2g119NvLCspDdLLCyC0IUJvvnUXeCdmCbv5Q9iFkxrXfGZKadnVa+ilrQFARITeHOsu8J6iups3uhHsIezCVbWr/mim19BrF66xeA1ARITenOou8PaxYC1PtDJh95MXTgngsFChlyovgOhaoffzN40JcoOxZAXTDLu/ceGkAB7oNfSyeA1ATIZEycPy8E13CnKhu8CrGxWB9wi78FEn9GqR6poPtovXtq4XAIiBEi0HCb350F3gVYoeXs8RduEzG3obSncVektDGwQAYkLozYluWxoIvB7TWt9D2IX3rvhstavQa3deY7thAPEh9OZAlxVeAq+vTNjdL7+59YAAedBl6C1tpcoLIFat0PuFD+8VeKnLHl4Cr4/aYXdCgDzpIvSqgTIjygDETZlX1vvl8E37BN7pKvAqpbYJvELYRa51EXpLF1HlBRA7JYHsI/T6h7FkOUTYRSGsEXqbG1HQywsgfoReD7FoLWcIuyiUNUJv6aKNAgAJIPR6hh7eHCHsopBWCb2qvySlC5jLCyARhF6PdDuloSJwGmEXhbZK6C1duJHd1wAkhdDrCXp4c4CwC8iZ0GvuSM2c9fPsvgYgWYReD6wdeH95tiJwFmEXWMSE3vrCwDmht1nl7ef6HkBiCL2O4xXAYzrQDxJ2gSVGJueWC73lt54nAJAgQq/D1g68ffTvushUdg/JJ7ay4wuwnGVCL2PKAKTAht4J+cJN9wucQoXXQ82w+5tbxwXAypYJveWLN7GADUAa7pEvfOjTAmesHXhVg5FkDiHsAj3ohF6RqeaP7QK2NzGbF0Aa1B5CrzvWDrwBM3hdQdgFQrCh952f2a0DOWR/WBpa32xvAIDkEXpd0UWFVxF4HaBFTRF2gfAaV31mvBN6y5duprUBQEoIvS7opoeXwJs124P4uuwRAJGcCb1lxdQGACmyofemh+XgKJkqI11UeAm8mTJhV59Qu+TA0JwAiKwTetXmdWw7DCBNu2XzuscJvdlYO/BqAm9mCLtAImzoFa332w0p1ECfAEAqlIwQerOxZuBVSrYI0kfYBRJVv/KzE+YMuL/0Nvp5AaSI0JuJLnp4WbSWOsIukAobelWf2k8/L4BUEXpTx8YTrtFS1XW1m7ALpKMZes/r31+6aIMAQGps6D1/3VNy+F9XBIljSoNLWmF3l/zWUFUApMaG3tLWDftLbD0MIF3bJQgeJ/Qmj0VrriDsApnqhF4WsQFIGaE3BYwlcwFhF3BCfeSPJ9TFG/dLP91eAFJF6E0YLQ1ZI+wCTgne+/mJ0lvO28/kBgApI/QmiDJGlgi7gJOaofdNGwi9ANJG6E3I6oH3l2crgmQQdgGnBe+fmiitL+8XAEgXoTcBVHizQNgFvBD82BcnpF/dIwCQLkJvzFYPvBvo340dYRfwy83/44D5xt0jAJAuQm+MVg+8NQJvrAi7gJ9u+9IkoRdABgi9MaGlIT1zWqvdhF3AU4ReANlohd4//tCwILTVA69qUOGNx5wOTGX3E0MzAsBfNvSW9IgJvmz9DSBN26WsCL0RrB54A1oaYkDYBfJk95dmzJlzl/moKgCQniFCb3i0NCSLsAvkUTP0lgi9ANJG6A1pjZYGVRGERdgF8mz3n1UJvQAyQOgNgQpvQnQj2EPYBXKuGXoXRkTraQGA9LRC7+dvGhN0hcCbAK1M2P3khVMCIP92T8/JT31plwm9DwoApGdIlDwsD990p2BNawXeiqAnzbD7GxdOCoBi+akv7ZVA2IoYQJqUaDlI6F0bFd4YEXaBgrv9zydEN3YLfb0A0kPo7cKqgVcp2SLoCmEXQNNPfXmKxWwAUkboXcMaFV7FHN4uaK33E3YBnHFmMZscEgBIRyv0Hr5pn+ActDRE1Ay7v7l1QgBgseZitj8fp68XQIqUOefsI/Sei8AbAWEXwJpsX29zO2JaHACkgtC7jNUDr2ZKw0oIuwC61tmZjRYHAOkg9C5BhTcEwi6Antm+XtviIME9AgDJI/QuQuDtEWEXQCS3/cUBU+3dLrQ4AEgeobdt9cCraGlYjLALIBa22nvbn29nQRuAFBB6hQpv1wi7AGLHgjYA6Sh86CXwdoGwCyAxzQVtdmavflAAIDlvhN7DY1I0asVfmZgdVHU9KwVH2AWQmsMfGpZAHTYfVQQAkqFNuXO/1NR98pH/oaUgVq7wnpLC77KmA1NxIewCSIut9tLbCyBZttI7IeXgfnn0J5QUBC0NKzCV3UPyia17BQDS1uztZZIDgCSpvVKb/3RRQu/KgXdDcSu8zbD7m1vHBQCy0pnkIHqPEHwBJEKNFyX0rhx4a8UMvIRdAE657UuT7NIGIDnFCL20NCxC2AXgpM4ubbQ5AEhEO/T+6Y8r0ROSRwTeNi1qirALwGm0OQBIjAm9p2uPy6HpoTyGXgKvpWVGXpc9AgA+sG0OZ6Y56DkBgFioUTlv3ZfzGHpXDry6UZEiMGFXn1C75MAQLxoA/NKc5lAeob8XQGyUjOQx9Ba7wkvYBeC7xf29BF8Acchh6C1u4CXsAsiTs4KvnhYAiGJx6D0yKr5bOfAqld+xZFqqhF0AudQMvl/aJUGwi+ALIBIbejev+58yt36776F3tQpvPgOvDbt1wi6AnLv9L6YJvgBisN2cR77se+gtVktDJ+z+1lBVAKAICL4AovM+9BYn8BJ2ARTZWcGXxW0AeuZ16C1G4CXsAkBLM/gy1QFAKN6G3tUCb0XygLALAOeyi9u2/sii4MsGFgC64mXozXeFl7ALACvbNbEo+JZH2LIYQJe8C71qxV/5tZcnlVJ3iq8IuwDQuyO3i7wyN27OoXeKUqMCACs7Zu4SfVAGTx+TXdPisnxWeAm7ABDOrs+J3PalSfnhwV1S0mxbDGA13lR6Vwy8SskW8RFhFwCiu8oE391fmjnT50u7A4DlvRF6//h2cdWKLQ3q468cMe9GxSeEXQBIzpFxkZeeGxVVGjevHv62vAFIwjFp6NtEBo/KRz4nrslTS8Oc1mo3YRcAErJrsjXWjKovgHNtl7L6soljIy5WevNS4Z3TgansfmJoRgAA6aHqC+Bss6bS+0HXKr15qPASdgEgK52q72226rsw1Kz6soUxUGRDLlZ6V6vwHjXvhsVthF0AcM2RCXN2frIi0rhFArVX8rKREYBeOFXpXTnw/torx8yvVsRdhF0AcN3ZLQ83COEXKJJZ831/j9S3HMo69HobeHUj2C2fvHBKAAB+IPwCRaTN9/uerEOvl4FXq2CP/MaFkwIA8BPhFyiSzEOvd4GXsAsAOUP4BYog09DrVeAl7AJAzp0Jv2rMvN0ihF8gT1qhV208JLvT7UpdbUqDFocQdgGgYL52u8g35+y0oBukITYAjwoA32kpyX6RjfvTDL1eBF6t9X75za0TAgAops6os6Axal6hTOVX2/eDAsBHqYde5wMvYRcAcI7FrQ+2AqyU63PjAZwt1dDrdOAl7AIA1nRO9be5aVJFALgutdDrbOAl7AIAQqH3F/BJKqHXycBL2AUAxObs9ocdBGDAOYmH3uUD7y/PVlS/PiYZIOwCABKjJ0Smpgel3jdMAAac0gq9u/98vyTAqcBL2AUApGpxAJaSqQLrG8wr4zATIIBMJBZ6nQm8hF0AgBM6LRB9aocEzeovi+CA9CQSep0IvIRdAICzOlMgGrVWFZg2CCBpsYfezAMvYRcA4J2lVWCtK8wCBmL3gNz25/dKDDINvDrQD8ontu4VAAB8trQXuGSqwLRCADHQB+W2L90lES0feCdmh1VdH5UEmcruIVPZHRcAAPJouRBMJRgIIXroXT7w/trsqFL6iCSEsAsAKKTFIbjcbIcYMT+5jZ5gYC3RQm/qgZewCwDAEp3d4RpBRXR5mGowsJzwoTfVwEvYBQCgS2dtkqEHz0yIEBkkCKOwtByV1xZulD3Tc738ttQCrxaZlv/nBbsEAACEtzQIUxFG0YQIvekEXi0z+oTaJQeGekrjAACgB53WiLoJws0eYdkuzbnB7B6HnOkx9CYfeAm7AABkq1MVlv7KmT7hZptEcxONijA+DT7qIfT2SZIIuwAAZE9N2P/a1+KZ9tvUWb++XGVYqW2tNgkbhqkOw0FKRuT8/vvNR3et/dDlxFHhJewCAOC/pdXhUmnbokA8SLsEMqYlCG6U2/9ierUHLV/h1Q1zRVeSCH91lbALAEAOnFsdPtfiCrFWlWabRKdlojlVgioxEqPM8XaL2OEIq4i/pcGG3TphFwCAwrjqc/a/M6s+5siojc0Vqfe1wvDSSjHBGKGpylqPWD7wrivPmKs06Vkn7P7WUFUAAAA6dk3b/1bbb8uz7ROPTJsqsQyeCcZlE4zrakhK2gTj9uI6FtphMaW3rPmQFX/h46/Mir3a6hZhFwAApGVpOG7+nHqjnULJlrMDsq0iUz3OJa0PyE996Z7VHtK38u/VDyql9klXfxFhFwAApOiN3mL7Vu3q93TaKqR/sNlvbINxUBpsV4ylWUW2objVYkFQ9oM2X69H1nqQWvUXP/7KUfNueI2/hrALAADya7lqcics95tKsm256FSVzwnMTRVBMrQclp/681vXetiqi9Z0nwmy9WBCibp7+b9Dps0XeQ9hFwAA5FaYavJSi0Oz1QnOzV9TrY/fCMjtanPzJ98I0Gc9hsqzcUzKpXu7eaDq5kHyy7MV6QvGzZN8g3mC5ySQZ0QFU/KbF00LAAAAsnOmVaNtcZi2OoHa6lSkO85UpjuPXaYavTiItx7kQtg+LKWFu2R3lK2FAQAAgG4tDd1ntPull9NpC1nJOUFb7CKzqvTXproNugAAAAAAAAAAAAAAAAAAAAAAAAAAAAAAAAAAAAAAAAAAAAAAAAAAAAAAAAAAAAAAAAAAAAAAAAAAAAAAAAAAAAAAAAAAAAAAAAAAAAAAAAAAAAAAAAAAAAAAAAAAAAAAAAAAAAAAAAAAAAAAAAAAAAAAAAAAAAAAAAAAAAAAAAAAAAAAAAAAAAAAAAAAAAAAAAAAAAAAAAAAAAAAAAAAAAAAAAAAAAAAAAAAAAAAAAAAAAAAAAAAAAAAAAAAAAAAAAAAAAAAAAAAAAAAAAAAAAAAAAAAAAAAAAAAAAAAAAAAAAAAAAAAAAAAAAAAAAAAAAAAAAAAAAAAAAAAAAAAAAAAAAAAAAAAAAAAAAAAAAAAAAAAAAAAAAAAAAAAAAAAAAAAAAAAAAAAAAAAAAAAAAAAAAAAAAAAAAAAAAAAAAAAAAAAAAAAAAAAAAAAAAAAAAAAAAAAAAAAAAAAAAAAAAAAAAAAAAAAAAAAAAAAAAAAAAAAAAAAAAAAAPCQEgAAsKzx8XGZm5sbFWlU1n60rk5N/cm0AHAOgRcAgCUmJiZkZmZmuxL9uPlhpdvfZx7/wMNTj94rAJxC4M2JsbGxQZHgzpKoUS0yLL2pmsrE01pKB6ampqoCAAV3++23q3ptwYbdUemRFr1/aurRCQHgDAJvDpiwWzFVhSPSQxViBXNa1C4TemcEAAqqXd0dMufVVySc2cNTj1wgAJxREnivZG6hSfSwaw3a4NyqFgNAoUU5D3IOBRxD4PWcCae2hWFM4mNbI/YKAABAThB4PackGJeYKVF3CwAAQE4QeL2nbpH4DY6N/cSoAAAA5ACB12NjYz85Lgn1ipWkTJUXAADkAoHXY0pKd0pCtMgoi9cAAEAeEHg9ZUeRSYj5kD0wYbcxLgAAAJ4j8Hor+UkKpoKcRH8wAABAqgi8nlLJLFZbapTFawAAwHcEXg/Z2bsSz0YTXSjFOeMXAAAgdQReDyUxe3flv0sltjAOAAAgDQRez7QWq6UaQpnJCwAAvEbg9U5jVFKmpLxPAAAAPEXg9YySUhYbQjCTFwAAeIvA6xETOofNu2EJp6pFH5LQkh+DBgAAkAQCr0dUhNCpRKbNl3tSQkppDBoAAEDsCLxeUTdISIGo/VNTU9PmwzkJZ5jFawAAwEcEXk+Mjf3kuISfvTtjwm7VfqBFPSihMZMXAAD4h8DrCSWl0KPITMg9sOiHByQkO5OXxWsAAMA3BF4PtGbvyqiE90TnA1PptS0N0xKOCbuNcQEAAPAIgdcP4xKSEpnstDN0aAlCT2swlWYWrwEAAK8QeD2gRIduZwiksUy4LU9J+MVro+2KMwAAgBcIvI4z4XJUwi9Wq05N/cn00p+0bQ0RZ/KOCwAAgCcIvI5TEcLl6qG2NCUhKVFZ7PYGAAAQCoHXYa3WARW6nWG1jSbaM3lnJJxBZvICAABf9Akc1hgNe02iRaaXLlY79zHqESU61FbFSsr7JPy0h0JqXcDUzfNdGi6J2qZb20QPLnpbqiqtXmvzpp82jz8mEjxtvm1n2tM2Cq31fNrvEVVpP5/mx2fafyor/Lb28ylVZd6buyDP8Lwu7/bbb5darWaO0cawuatj37Z0+RxXpf08m+e4Gpjn2By/5uK6XDXPb9iL7MJZ5vnvHOP2XFFZ4bdVpX1sm+f9aZ735U1MTMjMzEzFPrfm/DG85Pyx0vn4rHMHz69/lMBZu8duOSqtUNQzE2bHzTfhqn26dqauCbyzEo4JC2q7jwGhNUu4MWYO/y3mh0MrPzIwJ7G+6Sj/RtuDrSSwf5edblGR+JjPTT+hJZhark87j1pft+BO8+I0qltj+pKYCW1fzGbMi9mUuTB5Yq2Lxryxx2tJghvM9/aovHFBFif7vTSj33h+nQwK7UC03Zwfvy3h6MNTj/RUrWj/nc1j3IRbu8lPnM+/Pa6nA2k8Ys4XodvZfPXGc9sYK0nphvb5oyLxWXxcP1K084YvCLyOstUrc7I9JuHMmZPtUDcPNKH6iISc8WvC1j1TU//9gHik/bzaf3Oly99SNS/+u3o5gdm/w4SGO83v2yvJhLKlzOeoJ/IY0Dohtx0ARiV90+a5nWy/iOWy+mueY1PhCm5J8XhdzB67B1wLCWkG3vHxcZmbmzMXxtreNRuV5LXDb3O7+arkWOe5LYm+O8GL5OUcNcf1g0W8aHYZgddRu8dungzbv2tn7z489ciebh7bqkA2A2AY0+akvks8YgK+vYioSG9s6B1ZK/C0wnQwEa3vOhr7tc/DC5kNuiaE3Z1RCFtO7kJC+3s/rZC1JpeO3TQCbwZB9xx5OV8s1WoHOT3e3qF0VLJj23qminBx4QMWrTlL3SAhLT97d3ntxWsRZvL6s3itPT+4Ir2rtHpvV/xzB28du3mfeeE6mmXYtUwVY9xewIyN/eRe8dRtY2N327sbJuxOiBth16q0n9uj9mstHrNB197ZaV/ojooj2s/vsVvHbjmY51nfNkybf9/Qq3Ozh7P+GrSf82/7fkx32IsIe3zXawvm+C4dlOyP78HFz3HrjhWyQuB1kAkr4xLz7N3VRJvJWxoTf1QkNFVZ7mft7WAbglwLZ+Zk/4ANNT4Fh3YQOxY0b3E781wuNWi/1vbz9C2UtS/MHnAt6C6VtxC22M///E+YyvH/3G3/febf6cq5U7WP6W/7eqHRuYg4PvfKpKPHd/M5Np/bU7t335xpUaTICLwOat+GCaUdvHoUaSbvnUW9am1XIu3Cwoq4abRV7R0bFoctCWIV8YPtBT/qSyV90YWZL5V/70PYUuY2u3rpeyVznJceFjcv6GwLx1Pmrp1PRYxmVXdmZmaX/dyzvsPWhe2i1cE8Xsz5gMDrmPbJfVTCe0J61G5rmJZwBpVqhG6/8NWtY2P72pVI1zWDmQnnTr4QdBYRehTEFhu0lXTXX7w8uDBbzXbfq72d6qO5zf64B8f5kJLyw75cyH30ox+V1+bm9ppj5HHx5/juXMw9lefWHRcReN0T+upaiw690tnO5JWwdMnbftEwbNhtTUXwhwnnk66F3nbV0VZ1na5Ar8W+eLkaEDy6MFtNMyCY0Hu/b3eTFi1+s4FsVPygzIXc/a6HXlsxP3XitQfM8f2A+GnEHheE3vQQeB1jvgEibNtbOizhTUqkxWvFaGvwMex22NDrSnvDorBbkRywlV7XbgX7fKwux4Tee9oBwYtzTTvsDrXDrm8Xdc3Qe9vu3U7eGfrZn/1Z1agtfNrTO0OLbSf0pofA6xC7aEciLVabCr34zI7cUpF2TgtyX+XNQ4Bo9/RWJEPtNgZ7cZariyRzK9iZ6QJ5C7uLjPgSer/+9aeUZ7fal1KBDh5wbQ2ArezOnzpxv13cKPlA6E0JWws7REkwHnY0sophm99A1IPmGy9UlUq1FgtMSE6VRO0wASIPoX6wHTZHJAPt3f2SquzOmRfBaqm1U9pxWXLHwm4fat4NBs2+5kQqbpk+tx05DrsdNvTahV83irvUwmm5Xzxv15FmT69+2HzfvsuFjVfGx8bk1VptX0KV3dXOH4P2/JHguaMTep14nvOKwOuIVsVCh759ZMOqRGQXr+0eu8V+s4WpnlTsTN68bnMb8wnWnlhtRb169t/RPJlWJHnDdirCw1OP3iMpK0lgX6wqEhPdfA6VvbMx3V582bV25cq2VsQ5nH54bOzmiampRyckA7atIuGwu+pFhbSDgW6dQ0YlObtsT685hu8VR8V4zsj6fLG9JPrT5v2tkiG7mcRc7fQeJaXYFjCGOX90Ngwxr7pjKt4t4514nvOMndYcYWfvtgdlhzFzeOqRWKpKJgRMtHf+6ZndStG80DtbBY24q1xoull9V3Z6hnkvM13s2GaDWMWcUEdjPqEu+bwau9K8QOmMxpIYtJ/T/b2G3JW0bicGEyqesUZz7Z35qpKiENtmdyXsRcWiYDDafl4rEi9tjuEbkziGY9hpLbT2sT1lPnxa1jhftHYUq6VxvjCHtN5z+PCjEWa2h7fo6/GUxNAKFdf5I4Hd8swxHdw7NfXffV9o6iQCryPsJgES8hvGnInGo/TvLtZ+0Twm4dgX+u2u3pJJOfDa58JW3Q9EfT5aATjYq+KfMZnq1tAht3Veyj6v9oUqkReEGINv6ttuR9mOfDlxXlR0goGpYN0d84YLdke+2G8DZxB4YzlfvBGAEzlfzJrP8bIszu+33nqr0kHDfi0qEo09Xu6K60K5o/28j7eDb0Wi0e1jekYQKxatOSCL2bsraVelpiUcc+XdGJeCs4GsHfwn4nhxsCc+Uzkft39mtF3xzjGa1uihiLsHdsy0K6eJVT/s8d9+rvdLNKluu916fmMLODYUmOr/I7viCgaTk5PNlqly/7rd5s/eI0tuz0ew3fMFs3Nxni8+97nPNc8Xw8PvSuJ8MZTFc237diUIIgdJU9073A6S0xIz+7wPDw9Pmj//RvP3TEk0drHj/YLYEXgdoExFSUIy31yTcd86jTKTV0npFimuajuQxRJ0l1oUxmILDLYfLo0V71F2D7TsC7dt20mrTcB+DaOH3vS23Y6rr9G2JSUVCqxFweBdcYUxU8n8RR9XuJtK95Gkzhe2Qm2/V/r7B2I+XzSf69QmZNh/h3libHCPdHyb37//4alHbk2yOt1+zo8FonbHc8Hsx+YfPiHwOkHdICEF0kiip2pSos3k9X1lchid6mPit6HM32EDg71dXpXoBpOu2kS9g2FfrGzQl5S1Qm/4UJbWttsxVc87z/PepG9Zt4PBrHn5iaOSbg2VRP8H8UjruX7kxqQv4BZXHiWe80WqVd5vfOMbptoZRA67aS4iNV9T+y7qBbOdg/wfijLfPi0E3oy1h9VXJJxqEgs27AtetOpLkFplyxEzrVvA6fW22RfKuEKvCWYRNjvpRmNUQmovhJyQzDR3EQz7dU2lxSeO6m7aocCywaC/v3+//RpLRLp5XeVHOEj7ubYXGCb0Hosr9KZV5bWf96lTpypRWnXMc30gi/OHPbY3bNiwP+JdjCHP23WcQ+DNWEnKob+Z45i9u7JS6D6k5AOUU6pph92ORaE36t89mGy/qQpb8a+a43BCMtS6+As/8i/pFp84qrtZhN0OU4HU5ra7HY83LdF4EQ6yeq6XhN7I54s0LuRiqO4eM+ePOO4ghHL55Zeb67CSPbarElLaLSR5R+DNkL3VG2XFchDP7cBl2R4+Hf4bdTDNBTsZmssq7Ha0Q2/kebpKyrHNtlyqveFDz7J+bhc5IOFDQqLtPdF7o+2osSwr6CJXXnmlXZV+l0QMYiYc3CEOy6ra2GFDr6mo29AbdXaxvd1+syQohuquPaZuzPL80b7ImI14kUGVN0YE3kxFudXbnIlZlUSpCP2LyQUoV7THY1UlY7anV6JXyEaTqiQEop+RHiWxGDOs9otm2N7swaR62mOY7mI0FzRlygYDaU2GiNraUHF48dqxqQw2elnK9vQqpSZjmCQwmmTlMWp1t9UKlf35I45j21zIJXpxUSQE3gxF671Tk5K8AxLeaM5vxVSTHI/Vq/ZK7IjVjKRuU5Z6rpAmefcijCiTS6Jc2K4uWuWndXvdjYsKUwmz72woqEokDRfXD9gNMpzZEW7Hjh06aFV5o54vEnuu5+fnJcJibtvKELkvPC4xHNvDBbljmjgCb0bsJggSvvfOnqgivAB3p13ZmpbQ8nsrxgSg3eKQdmtDpJN8Uv2m7c/N7gQ4LWu8yOpWT/RuV4LYItMSmqpIAlSE6S4tpUlxhK2Ebdq0yd7+/V0JT5WkdI04pnW34k+iVlRj025tqEZcUGWf6+slAT//8z8hQVALvZjb/Lsecun80X6+7bF9n4RjDqFCj/uMTZ8gE+Z2zXjYje7s7ajDKfUm2dv2SvSohBD9BdlN9gXssJu74NhKapRWkmZVPqkZwuZdqjuPxawq4VUkZq1b9zp0q0T7GK6KQ37wB3/Q7m42aT60I8ZC3R3SCfdMh2CqqY2HxD26dcGjQy8w1vFspXuO117brJScCBvwtEsXch22leT222+frNcW7IYSPR/b7V3zMm+J8R0V3gy0bvWr0FdsCc3eXYkNdhFm8ubvVkzKz3/Xolfk7WqUfF6kRNV+bkN9H5gXqx0Su2htEkH0ftnYtfsdZyPeqXCtjWomidGRUXV2ZJNo54tEeqbr9bqEfX001d1HHLw71FSr1XSEY7soC8ETReDNRLP3KeyJuZrmCTT6TN70dptKSdXFF7COqIP8tW74XIVNlI4+zik2JkSPSnjVKTfvUMjgYPO0+ISEVxF3mG9Hd3pJl2M+wUclAnOBHOvF3Pj4uA2GoxLu9VErVXamdWSpiMe2bWsYFURC4M1AlFFCWoIMTqCRZvLemafFa+YFYkLcFqUin9s2lIxVJHbhg4atgomjJicnbb/jtISvPDoV5LXWUcJ7GiIFRK3r2yVGc3P21BWEPge5/HzbY7tUKoUe92nOzYn0TBcJgTdl0UcJpX8Fa2fySvgXoEFHV06H5fQLWMQRWlZF4IMIvaqBs1Uwa9Fc3qr0Zrb9+1xRdfX2eocJYNUI89ZjXyRoLnZUhIvuGdef73K5bP4b+oLTtf507xB4U6YkmJCQ0pm9u9LfHX4sU9Th+A5x/oRqRRuh1ZwbWxE4K/pc3z4n2xk6Fu0KtsuOTrML7NZ6M4/da94uc6lVw3zuT4vjTEXUhoDQz1kgekjiF+r4Vo5V91dgXsZDHxeJzfQuCqY0pC7KLeNUZu+uZFJaEwDCtCcktvo/TeYFzPXbkx3TEklzQdSkwFH1iqkVSUgzPnwfthewVe2H4icbbJw/X2jLBDBTVQ11Fy7OBZm333677d8dViH7dwMJ/k68UJ5pHh6hNGzg9SHYO4kKb4rGxn4i9GxBad0ey2w6QPRb5f7P5FWqfEQ80K5yRQk1uem5zqe+ioSkQ+x6h7C088Gkv7/f/NeNY2Jo6JT5b6Miobn/fF955ZX2XVXCUZLIxJfioMKbIhVhYoGKvnVsZBFn8tp5jxPiMVML8SksVCXkrcGSlAp9Um0vsqy0qilqS0mUfR4HtTP9zUEl7AxvibyTGbrX53wlfdOmTTI3V6uGrzjG9z3xve/ZOBJEOPe4/3zbOxemkj1Xry3Yz7XnwoI5F20RhEbgTUl7UHzoXlYX5mbaxWu7x24J9Y0q7TmCLo/0Wouro5yW075NGSrwJtSX55TlQm170wLz87rSelTrBljoKJCcCBV4XRWkxfkAduLECfvOic9zw4YN6tSpExUJz4uWuUaj0RxxGKZ1w8GNVbxC4E2N7YsM3UEy40rYsoOzTZU31G5eJSnbKu+0+Mm3vqmqhGSC8jbJgSWhtmJC7bb2C4b5Od1+sXE21K4oytdHqb5jglT4sMDV3mKfmZlxIijaDScinnu8CLx2UoMOGlUJVx2n3SwCAm9KlJRCb/lqQuYBcceUhNy+Vnu8eM2lTQe6Yyt5oW97e3NSzWuoTYrWteMCOKhcnpd6TYU+9/i+KLpLFUFoBN4UmBfl0Tduk4bizGpfW2nePXbLtISbJWxn8o6b9y4F+C5pz4KCzuXJv9UaFNzSbkEY9aD9IAlUeZA7Cwt95vu3MRj2Mn1s7CfHxQO12mlbAAv9PWzPgT7cPXARgTcFSoLxsNU2O2PysGMHt53zGn7xWsnuke5d4DUBa1a80ld1YSFKVK0Kbn20JOVbzL9mrFW1VYWu1pp/e+hQ0DouAPesCwKZD3/uUea15aAAq2AsWSrULRKSVuG39U3QpIS/xT9qF68JkuZ1hdfeFTF3Eo6YaHtMSfmwCXnjQmUTABASgTdh7dssYV+oq4cPH3Zu33vbK6VFR5gJXBoVOC2L3dZsNffWsZv3maA7a4KunXk8KoRcAFjEbjyDMAi8CYuyra4Ls3dXFr7y3J7J65XAv4H93lR4O0HXVnO1qAkh5AKFYufTnub7Hgkj8CaoXSUblZACUfvFUXYmr4QPVYO0NSTLhxXLBN1wVIQeaxa7wGF8/yNRBN5Ehd9OV5vqrusvTjrCZhhKyqHHtMF/tkfXBN2jBF0AQBoIvAlSERarmd89Ke6LMm1htD1DFQXSruo+0O7RrYhjzIVm1VRQp7ToB00Y32vedpu37YenHlGabXkBwFuMJUtIDLN3nVustpS9bR5hJq+0K+ATgkKwLT4m6B7WIbc8josNrqXWznlzgSj73vZnz/hyu78dyisSgq8bv6AQOC670sfzFBKBNyFRZu+2fr+eNWFS8qxdAZ8QxK7VP+7OtFrz+QzbsCvpVXXnOsG2FWobx0XKNtxWCx747F0VXjDhFLto7WfGxubmBWuw568ZQSgE3gS0w0bo6QwFMmwXr01N/cm0OK4UbY9378RZ7WyHXdvCkFQLiw235kVAP22+UtPiUbUWALo0a+6O3SgIjcCbiMYo7dHdKo2J0+PXvFURB7TbGGIPu61+Wv1IezzeDLfpgWLTop2dahSdrpo7VFOc56Ih8CZAScm7ObNZUaLuNKFogm9kp8TytUgg7LY3PClNtcfioXcsFIWTFkol0UEjbH+6npp6dEKAVVCGjJm9fWveZbooxzPmBbgxLohZPUqwiSXwKgkmJJ5Kswm6ar+dlmBe1PYWPeyqSNMi6gRe5BJTf7AWKrwxU83JA+EXqxWRqYjbxWtRRpwlLhA9JF7pq4RdtBbH+K3Wltoqch+7HQ9mrsuduAOgxI02kSiU6t8igIPK5XKzwivhv89YkIlVUeGNnbpB0KvR9q50zlLeLVoLKpIhcxETdWORqqno7mpXdDN/EXOpeqQjbHOtdd2zCzcURV9fX6RjW2jXwRoIvDFqVbX8rwJlw45xc1pFPGIC+g4JqRSxwhvD98FMK+w61bpQEXdEuABQFQEcVK/X7bsIx3aDVkKsisAbI1PVYhRZSCagub7Qb9CzHrHQJ/8gWpUl6qLNdmXXubFiDn3tS1UJqWjj9eAV3RotGIqSCBf5KAYCb0zat+RHBWEN2pm84jCl/GhXaR+LoQOaUuWjElL77w4btufaYdfFPjyHqkeN0M+PZkEtnFYOvamCIvBiDSxai8+4IJKSlG1lcFocpXVjl3iw5bO5OWhCTVnC0jpShXdMQrIL1KamHqmKg0qib3Bn3zobCkJ/NsM+bC9sd96amZkZLElwdzdtGOauxLT5Kj3BhiP+uvLKK+3XvCrhcTGHVVHhjYliZ7XIdGvxmrNtA8qTBYmqtZlHaFG2rjTfB2H3wzYBrDQpjnKsMlqVSOpOB4N22N1ujqWjpuI/YZ778bXezPfmpHn8464vfsXK7Ne9VCrNRZgS4/xdQmSLwBsDc5IdFRarxcH1mbzDfrygRgrmocNuW6gwZaq7zlbn2rO1K+IIW52NNjquNCoO+8Y3vqGUBHbKR0V6Y0PypwXeGhgYMP/VT0g4yvVjG9mipSEGqjlhIPzsXfM7J6MuFHJJewFaqEqt+zN5m9MkJsRRrYsvXZGQdPgXm/boLh2yQm9vSbsq2vd3MuzXSVUkBJfvVLSruxUVfobzqMBb9Xpdt4/tUF9/c9zcLA6fn5EtAm9ErYpfpHaG6sNTj+yRHBkbu3kwwtSFUXtbamrqT6bFQfbfZb7mB1ztgYx88aXKRyS8CAvl+o6Jo8zXPGybRoJKMxHOO6Ou9vF+85vftO+itOSw8YDH2n28UxK+Uj/s8usHskVLQ2SNUYnAVNQOSe6UpiSSaD2oCTOhzu6m557WxVe0cKZ16LFAVkVyxuHZ2hG/x9w8hk+dOqWU6F+U8KoCb9kKf39/v71omZZwVEnKdwiwDCq8EUWcOSouL9QJy24YsHvslmkJeXvR3s404c2J7WSX426V1158lUJXWc29xOms+mhd3QHM1dna9us0NnZLNex2x+07MBPikNtvv11qtdPj5jmvSEg6R61hRVWr1cypSD1hLnxGJQS7iNGcn+9zdU1AZwKJdHdHbM71iSo+ocIbQcSZo5kGjKRpUVHGdw06vpLcuSqvPRajb+cbRB25FuXE7Nx0jnZ1d1ScpSN9j42N3exUmG80Gqa6W/oPEp6OsOAJjhgebp76o9z5NFVeHeU4SoQNuuY8vf3pmaNHTJifNW/HunibNcUjpo/EhMAbgZJgQiJRk5JfkxIhACkpRwxvyTIVsn3t1ftOaM0rjXrrvRzxNnmUr3fJqT5Z2+Ma/QIiadFah8wxPOHKGEBb3Q2C2rhEP4anBV5rtzVUJcJM9laV150RZYtG7T0uvV9E72L6SDwIvJFEWu1cNdXdHPbvttjbMCraJhJOz+S1zEnosAufo736NxX1SBXnOO42RPz9wy59vUvhxmKlyrYOSbQxcpX2vzNTNgyY29jbI1Z3rWqUGdJwijbntIckPHO3oHy/OOLv//7vVTu0ViScUUFkBN6Qoi5mUQ7vKBaXQNSDEombC2sWMYFBPyAZalUidZTJCm2x3W0IGzicaRO5bWzs7qgXEGmJ2Dpkf//erCthEebunkVHa/GAQ+y0BmktzIzSJjVy69jNmYdeU2qWRq1mj+9RQaYIvCFFXcxiwuB+ybl2BSrCbW4V6TlOg711Zk6qmVXJTOA+KNErkbHdbYgyx7e9GDDTKq8Ju3cGog+IP+znGmlRi6mEHc6qPceGgflTp/ZJ9O91861YiniBDVfYqr8xqyMWTbK+oLPH96vmn2POi5FeI3QBCmRpIPCG0G4gH5XwZoqy53vEE1bFh60i7fanWYTeW8duOaijzSxtsp+/xCaYlvAG2wE+E+2wOykeae26FvVOigy223NSDb22b/c1pcajhgHLbt5TlHNqUbQXr9ljO8oFnW1teDiLC7q4wq6hlSrltv0xTQTeUKLO3lU+VZCiivhvdXom7xmt0HvL4TRW09oq6O6xW47Y6rJEVzVvMa5s75uWCC9QNsBncfFg2xh8C7uLRK7yGhXbGpPW5IaPfvSjEtRqewMdxHGBo80ds/sEuWKrvJs2bbJV3qhf2yG7WCyt0NuexjD4qgQPxHExZ1S1ZvpIHAi8IcSwerswvWbtGYLTElJ7Jq/Ti9c6bFhLOjSYirf9O45JTP1gNqjHWRlrVRyjbaaS8sVDxV48eNbGcJaYqryW3SFx0t45SOq574SBUydeeyCIqf+d6m5+/bf/9t/sxAb7vTkt0bRD708m2pu/aBrDkZjWAZg/prSf4zseBN4emZP1qERbrDZZtEHSEV+MTdhtjIs/KjY0mBB1LM7ga487G8xsv6XEN7M2oUkhUXfaS/7iwYYuW0k2f8dRycFiEvN1nJBoExvOsHcO7HNvn5+4gm8n6P7dzFP2OT8W46LAY1R3c89ObLhXojOht/RAUhd0toWhfXw/JRHm8y9me3cPHz5MO0NM2GmtR0qC8WZsDSmQRhEP3mlp3XINFdTaM1p9q8B1gu+Enchhvu6mqt/X9dik1gm5MWr+jOHWgh4de5XbvIjskQTYxYomqB6KYdHhmefQVI0nTJB+JOrFog1ddmax+fP2mn+/F3cOumW/nu0AHwc76s4cu9pW2yeD5qYk5elenv9FO0oNPz3z1Jg9HmJ+zlvVr8OHq4Lc+tznPmdbYI6eOHHiXnM8Rp660L6gGzUXdOa4Lh2KUj194xgP7jxuzinmXF2R+Jg7eeouQWzCJ7cCao+AmpXwqoenHtkuBWQC0IH2dqahmFe2kagzNm2VNJ4RXpHYwFC171Xr/WKDunX3wL4lGsZM4HtwaurRxG7vtXZ+a4avWP8d5jmbMrfCTQW59HQ3x0O7HcZcNAQ7zPFn+8FHJQPm+z6Vc6359+5VyY7Km7HHrfkaPG2OomrrpzrvVaXzviRqm25VuRLrmzTH8AFzDN8jCVh0a/rbEo42X3Pn76D69O+8/fbbVb22EGbjhlXZu669XNC9EXIbY28UJGI/X9uq9ruYKx0vKrw9aYxF6QKJdzW8b+xtbh068JrAYsNKlt/8VYlnI4J2AGtWGrJSNV+PCUmQrZqY8LU/7vDVanWwwVWLqfzan7LHRPNFqnMBod+4YDBvutL6ndHzpr29qBxvfzDP+wFzcTmc4Ei/YRtkW1+DlZ/TFI5tU/0q5X60I95w5ZVXahM0b223DFQkJq2Kb2m8fU5pnk/aF3XPdB6jWv3tW3TzbsVR87H9+xPL+Tbs3krYjR+BtwdRZ+9KrKvh/WJvc5uTybSEDAzt6vCEZKTVlqCeVhlvNBEDu8BpVxp95CmEL+tMBTHJkGWqie1wpUbFeSVTudc7JMHqasZsD/CNRVsLUXS2smreZk3ovbG9RW9F4nemGKGWXNClVaAw55r7pqYemRLEjkVrXYo6e9fuAlT0lZYRd4UazHomrw1w2vMNQ8znf0+6x6ENX+J1paLd/jEhnmhPbdgt57bM5EEn7FYFhWND7/DwcPMYkPwd37ayu8enc41vCLxdUhJMSARKlTMbqO+QSYm081o59fmsS9nV8L6GXlulNJ//pKSoHb52iaeh145YS7LXOSk2EPr8vK/gKGEXOQ29nQu5SUFiCLxdUzdIeNXDhw8Xfp/3GGa0jrowk9fH0NsKu9lUDjqh1y44E4+0K7vj4qlO6I06F9kFdoEaYRcdeQq9WuRwe4HatCBRBN4u2GH/Em327rSgLeqMVjdm8rZDbyIrxGM258JtMht6H556ZLcnFwpzrdYP/yq7S9nn3YZ2j1txZtvH7z307GIxG3rNMXGsr3/dZfbiVPxTbZ1nHrmVYzsdBN6ulCIt/gg87/uMU/sqNvRt1pKUdogj2j29dsxcVdxUbY9zmxRHtC8U7Pzfqrhppr2o74DkSPt5d/lYPYd6o/I1KcAKPve5z+n+/oG9jp9XFrN3Oh/M43nGdQTehNlRRtyGO1uUxWvasZXn9mtrZyu7VkGzn0877FbFMTbAOHir3VZ195uvZeR5z8v92eKARceq08HAnjPt8fFwq/JVFT/5VLHzvrpoN6cYHh7unFecrfaaY/tIK+g+updckD4Cb1dKEV4A1aRgKXtVG+okqxxdhNOpoGUd4tphYbv9fFy+TWZP9u1b7Zk/Z3bwfPviYGL1R5amJdyf71Tvsr3gcDH4doKuucW7K+t+Rnu7vFQqVSXk8+NLv7r9d/b399vzxLSEoB1q12u3OFSHh9+114XzymKLju0bp5ivmxkCbxfMAToV5punvSre+wUjcWsvYgrT/1p1uT1kmRCXVuDs3CIbaYeFqngiw+Dbec62m0rinm6eMxvCQnyOzh6zS4LvtGRjrn3B4UTQXezCCy+0Y6Luld4dM1/z+8QTmzZtsv9O+/n2er5ycuvbRcG3fV7J5sJOt1rK7J22IdeO7aJSgq6NjY2NiwTDJVFbVntcIPq4XZzFAb661mzjYNxuQ7rWY80LiL0qPhSlahlla2H7omyDUS+/pz1RYqwk+hbdmuEc54SJudY2u8ETIuWpvCx66Dxn5utkN6sYlXi1nzNlQ+tM2OfMfI5j5ogcXfs8EP2YTVNn1nj7eLWtQxVJgA0CpdZGLra1adrl56e9jWwlzfNUFt74d8ot5uu/ZtuYb//O8fFxmZubG23t2KluUMm0xpmLaHsHUtkNpqZ5/XcPgReFkXbgXe7vN+92mBeUUf3GFsNrhuB2QJhpbXWpzQm1PFOU22KLn7PABDD1xrbBq7EvPHNLnjN66Xtw++23S61Wa4fe5kX+jh6e/ybdqqq1vw7NgGS+Fs0LjaoAGWmH+87598z5WL9xfK9lyfmlZCrdzV1Uq3kpPOQVgReFkXXgXUm7qrlciJjjBLq8djXyHISp5C0KDCsFX45beGmtY5vzi98IvCgMVwMvAABIFovWAAAAkGsEXgAAAOQagRcAAAC5RuAFAABArhF4AQAAkGsEXgAAAOQagRcAAAC5RuAFAABArhF4AQAAkGsEXgAAAOQagRcAAAC5RuAFAABArhF4AQAAkGsEXgAAAOQagRcAAAC5RuAFAABArhF4AQAAkGsEXgAAAOQagRcAAAC5RuAFAABArhF4AQAAkGsEXgAAAOQagRcAAAC5RuBFkVQlpED0cQEAAF4i8KIwpqamqhI69JaOCgAA8BKBF4WiRe2WHkOvFv2gCcuHBAAAeEkJUDBjY2MV8+4WkWBo7UeXpk3YnRYAAAAAAAAAAAAAAAAAAAAAAAAAAAAAAAAAAAAAAAAAAAAAAAAAAAAAAAAAAAAAAAAAAAAAAAAAAAAAAAAAAAAAAAAAAAAAAAAAAAAAAAAAAAAAAAAAAAAAAAAAAAAAAAAAAAAAiIkSAEAsxsbGBs27wV5+z9TUVFVC6PLvmjN//pwAQMEReAGgB+2gOSwS7CiJGtbNj5vBsyLhVJXoyYenHt3fzYPt31+SYJ8Wtbebx5uT/GQg6h6CL4Ai6xMAwKpaITe4U4kaE9HtgGtiqsSiYsLrxNjYTx6fmvrvB9Z6sJLggHn8ndIl8zmOm8+0Yj7cJQBQUFR4AWAFJuiOlkTfbULjqPTYqhBC9fDUI9tl9c9n0ITXWQnBhOQRU+WdEQAoICq8QAxMEBk2lTdTSVNbuv09WvRxLaUDYXs4kRzz9ayYoPuA+RqNxVTF7Uali8dECN0NW5km8AIoJAIvENHY2E+Mmarb4d5vcSv7O24x4WoXodcdt42N3R2IntDJV3QBACkpCYBIlJQfkPAqJvQeFDjh1rGbHzBh1/bREnYBIEeo8GJN7T7GOxetRu/WnBKpmgBhCpiPHpIcsq0M0loQFMWovYVOlTc77d7Yw+1eXQBAzhB4sapbx8b26dbt3VBsSLYr203lbPjhqUfvkfyhEpgDrX5dwi4A5BUtDVjR2NhPjtuwKzGwM0PNn9fV3FAgTa2LOhkXAEBuEXixIiWluyVG5s/bJ4BDbLtOXBd1MWBjCABICIEXy2r1pjZ7duM0ODb2E6MCOMKlBYNKZEoAAIkg8GJZSoJE2g+UlKnywgm2ZUfCbwcct5lAVFdbCwMAeseiNaxA3SDJsBMJBqemprh9i0wl0GJjp5JM2/eB6Ge6/23BzNTUn1DdBYAEEXhxjuQrX83q8YQAGYnxGJ/Toh4076fNRdy0AACcRODFOUzl605JkEquegx0JY5j3PbcBqL2cLcCANxHDy/OYjdAkOTnkY6yeA1ZieMY16L3Pzz1yG7CLgD4gcCLpcYkFaWU/p7EVSUeBKfUNEYlAlvZnZp6dEIAAN4g8OIsSnSss3dX/nvUnXbxmniuvR3wtERgAtQklcL0mGNvVCIIROVxx0AAyDUCL86wQ/glvTFNg0o1ctHLq0XtkZCVXm3CMgEqbWqHhNS+OKkKAMArLFrDGUqC8eZLelp0yU5reEQ81w5A29ubdfRSta4SntLVuqugQ2+oErQmMgAAPEPgRVM7CCQ6nWEZuZrJa/4dMwLXVSS8Kl9jAPATLQ1oa2S0iCyZHd2A5dUrEpIW/bQAALxE4EVTlLmkJggckpCUqFQWyQEtfRUJTU8LAMBLBF5EnUtqbvM+Om7eh73VO8hMXqQniDAZRNPOAACeIvDCLlabkJBUeyTX/9He2fTGcV1p+NxqipIgGKKyzCJpBRAwgICI8sw6KXm2jtTSgEAMAw7thZexlB9gUfMDHCk/IG4H8EqASWm8jtuz9kQtD7wwBETtWWiRBKO2NZQosrvunNNdbbcofnSde6vqVvX7AGSbMj+qqqtuvXU+3mPJqJvPImoUXTsM5hcHwbsA6zgAAKgoELyA0Y/6nepav0lK7CjIXH1PXlAJXM4zCF4AAKgoELxzTqv1q1XSd65/37WeOi10SAeLkOEqAQAAAADkAATvnBNRdImUWDJru76+QUqMw3YAAAAAABwEBO8cI81qUk5Aej7f9bVEe7Vp3xjNawAAAADIAwjeuWYYkxJL9s7uKWFS1uBiUcanY0wAAAAAAJ6B4J1jDEXXSYkxjQ/3/j/RBml/Jzx5AQAAAJADELxzSqvVismhWW19fX1PGzKO8nbIoXkNZQ0AAAAA8A0E75xiKFklJeYQQeviyWuooY46AwAAAADsxQKBuWPseWvVrgjJ4W4Mbf4Q4arxPI1l+1KbMwDAnLO2tkbdblfWkmVefc7xA/dpQ+andpyhWpr62E0//ejxz0h/wTf8Mw/5d9znW18XawwA8wUE71wybHFwX2XAzzeMzu5mtd3IjeRy65I4NsSkIrnKn9aogoxLRZJz/J+nDvi2x3LT3dj4tEMFMd6uYZNj6M0Dvo23K/p84q3s4W/KOdYkGsjfTc83c5L2Pzby9+8cdn6NR2FLw6VpUkZYKJ0jNcnVVutiySJJRiMbqjM/CNxhi9+v5fvde5fM9+VX4323s/2qiRBu2vRnxz/dGP2G8RplP7eUbBR5Lc7C6uoq9fv9+JC1RNaRb3jb1X0TRfDDvhy0/sjY7kb3sGu/TGbbjxEzrWOgeOq9coI94YX+M1KKUUtmlS/kQ50YRGAZsp+Rju76xp3zVCFE3PH+rlOG48rff/OTjbvXKGeutFrXObq1Nuv3a7drIvYjMrEdHwfVQxX//TX++3tmEbLuC/gBFnZvb2z8R5sCZSIo+P2X7BBHc52m4mVFosCdhIYflSl+U7F/io/BJzT7WvKQ1+XXQhNYk32JyH7A68HqDD/C+zH8XYgC/o033jDPnz3944z7ITxO3xMvwQPgBwjeOUOiY7yYPiQlfBGfnnVhZWHNT7qkjCQPL4QWdTmIy62Lbb6cfkMZYRFyjUWIeizzYcgkPUPRh1l/btbtkvMpouQ3fF5IVN6bQGFRyw9Wdz968W+9zhG/xjoBFSEK3kk0l8+h93yfQw7cI2Nvra/fdbBY1PHmm2/S5uZ31/ia/YCyIaL31ZDKNFZWVsxw5/kH6fs6K5bX/tdCWvtXWy36jk9VO34Qy8JjDtz8iEAwoGltzjCUrJESfjpqZ4ki8EJ3i9RELgMxSkCXKucbW65WbNpJeodtlwhdyRTIw1M6cc+3ULn88j9FMYHaIOLuv7vd93I8h7ScJ2vafH7/9fLli5kfYl3Y3t42fO1dpOycTkvBgoDFLu3s7CxnFLsC73/jfQqI76LIsNjVnAdLvE4uEwgGCN65w/ySlEi6j7LRJiWGo6VpDWglsOHcrF/AYbv2/Dl5T660Ll5PswQx5cao1nembQLVQkoX+Dy68HTz/+4lZCWLEOr7elqE75XWpQ/HdeP5s7CwINmNb0gBr5m/oHDg+EiifViIQ1n7RbgnSSKitUk6egSCAYJ3jpCUMDlcuFnTTGk0uEM6pGlllUBZvHTDScthPkujcQBkZpQe7vfX+Dz6M43rdINH6jZle4uI9kZRxH8uuk86ghGKjcZzEeDq4Eooaz9HqflzonU06sEJJCwgeOeIiBrqBVs7MtjNkzfSLjTAM5Ka45v+PaqISAFhIbW6fA6d+nb0wJS5FjIEJNr7oWQ3KEfOnDkjLw5NW8PSS8Hkvd7aipqkXyu0ZR3eOXLkiNEKd6MP9oCcgOCdEyQ6x6EDh8UwapOONo29MDXERaUSwf6kYlccN1BSADKTNqad5nPoL5RrGUzuGMluXGld+mNekVQ5Vhzl7VldKtxEFJVe1vDgwQN5cRXepUer5b3gCG+TdOesTWj4JwJBAcE7N4hvqY5ZvHf3Q1I62ujwGP1EOOBOWsYgzggQuyAzU2JXShiaVAN4PXxb9icvQdZojHyCVZkx6y40nRk33lkPEdpyo9VfffUVOdw3+1VyGZoXIHjnBE4ROaTiTJuciNQpOk4n5epiAA4mjew2CYCM1FHsTnE+9cr1zokTJ6SOV1sKttRqvR5TSThGRaeRsoa3qEQGg4FEzFXCnYM8nxMIDgjeOWA8EEB9w+nPMmjiIPjnO1bfrVrqAj7PXGld/D2FJVTQAFIRpgYo1FHsTrgg5Q3kmXa7LbWjHdKd74ZK7H1wjIruZrnMsoaxY4aunMGYhkMdNsgLCN45wDiUBRinBooXfpNaNEfUQJS3BBQemjkT4SZSEe7fv8/RMStisEn+6UuZFUfRbskwDT5PL/PHeRmKM/VxIf24KiVV/P1dygFxcMijkS21J1NFeTkrVmazr8/ILIvdQSlNsmKdx5HqmLSDk6xVN2uD/FggMAfoF0CF9+5+iN+m6sZg0wYGWLzMEy+X0UimgM+Dt9PRs00CQTKyHrP2uu96Ujvqejcycro7w1rQS1878imNODf5P2PP5480sl3nLNTnPms2jx49ap89e8Zrr2rgQVNq74seNTw5xsZfYyI/NDVEPHeoYJ4/f87CXXyEsw+jTXtecK8KEAjemiOjZUnfcNTztYjLAnC5dalDusVw4sl7k0Dd4eidubZfGQ3/e5tf2lr3Do46/l4rxGTcNS+ZPSqXZlpXHSRTdbveop4y4TFhoesi4GS7aCyC2xy9a/f7/QvGXwRapoOJc4O30b7NZlOOo0Sl5fcp1u9Rw1eh6+UP5Qz+EsfptfoOFQwLXlIOaeJNTu4SCBII3prD6SUH712/AwZk1DDfZGJSkHryQvCGTV9KYFicyI1apkX1KGMd4qyiRit+Wq2L3xpF1GbMQq/oqNluWFRRyHz55Zcmrdv1gYwcfmedI/vkEamRZT578803T29ubl5NxblrrejpiBIZifs78oAI9JWVlf5gZ1uupZiyMfGxLXS9nDR5WfLKqIejSMeDqUh1k1SgfjdUIHhrzDgKphOYKb47TTukjlhIWUOxCx+YiYnI/WjDszAB1WJUypAkXsoFLNk2Rwqv5Zka/vjjj0Xc3GRxc8dHc53UC/MaddfXGrW4uGh3dnbuKoMEy0WWgaUiUdZ1309kkya8DhWEo49wt+yHYrA/aFqrNYm66UgaJnxfuO6evFHY4a05Q1LN0iz0ycadtyF25xsRPKysTvP17dxgyr/jxsbG3beLEGuy3cvLyxJJfo30TjITpLThffJEOnWtTToKbfhKyxlyWZ85I5P7SOdpXHyEYUcWNhC8NcalW9eYxoeUC06evL8JZVb8nCN1thdSodsjMPd8/fXX0uTjXBqQit01KhDPojf2ZaMo23XkyBER/R3KTqH2ZAsLC+oRvDNQmDVl6iMs53BM2ZH6XbgzBAwEb01x9N7tra+v53LhppHADukozaYGfE9PorqI6IIJIhKePXvWJMdIHCu09aLF7oRdotclsuw1ysviy/I2qaKGRUZGB4MBUX52aIWJ90ePviAHH+EeSu7CBoK3pjh673YoR3gBV4tpvpl497wEMyNi9wKiumCacc2jczr7YULGS8OXljSiKqLXdTu8RXl5e+Ql6Klr7777OgvzLXn/c8u+FeUt/OTJK0b7t0wJ9mkgGxC8NWTcrKZ/uk/GXpd50iY9McoaSqEPsQv2gqO74grwW9LDp1Z0I4Rz6/bt2yIy2+QmXsQ/1uV4vLA9URR1lZMqJTIaU864iMQMNIsQ7y52ZNZEKGcIHAjeWuI02jH3LtO0GaVDavTNeECHdfRBBfVEJlIlSRKTg8OBND+ur6/7GnDjzNmzZ6WMQLxf1aUN1uODeaPRkN+onbr2C8oZB5GYhdzFu+u5bC0a1kIHgreGcLRF3SnNC30h3o3WIYpcdNfuvGPHD0HwQAYv8cNEKjWWM0p/oIBISxt6bo4yo2E5XlwLTpw4wZegOnqYa0ZMKxI1bga87qucE2al35fnm0Ql3DFdrRpA8NYMXtykqculsauQp9S06Um7QDSL6toFwvAaAbAHrtG9VCh0KTAkysu3x1ukx/hq4pJBGSzAO6ReL/OxCxOUDzxybMUFqEPZWNZOWJyFY8cSbWmGNSYKJkMB9geCt2YYh3S/pBaLTFvL5DVSA0/egkDnMdiTlZUVie7Jw3WTdAQrFCZRXnIovfJp07WwsDDyRqfsyPSz3MoaHB547vD6n3UEL9+i9M3YByHv99ZW1CRlsAjlDNUAgrd26BfZhIZF33zgyRs4lhKXKBeoMYuLi/ISkwMsFIJt9JFJZwpRNo03l4TBYMBRUZ2osv6nn43QlzNQZ3l5WaLVmdf/vGqS08EZMenAdLWKAMFbI1qtX62Sg/du0ZG8NJXZIR1SI7dKIGcaHQJgD54+fcrRQ6sWIKHXPTpOOksxXnzDz549y58bIhA1xysXe7LNzU2JuGYtARhF9R0i6LnUJPMDhUTCtdPVXB6KQIFA8NYIQ5G6eUSZLnPGzZO3uElCc0o/xPpKEAZGBrDq+wVkKlXQQkFE2bFjiQhM7TUgIurn5IGpqWuabcllcMNwOFT5407S//qhGv4DHeOSEe10Nf30UFAsELw1IS3mj0lNVFYXfpv0zWtx2qQHcsDqb/Sg5ogA43S2RNqapMYGf34Nh0dVjgITrFsD8Qu4lFj49snV1m+nUf2e/Pfy8ujQZC2jE89nr24NUprB4jsm3eCMHoIC1QGCtz6skpLpRahoJKXpFl1O0LyWG/Y+AbAHvV5PXhzF3EIVhIJ1vA6a5AnHEoumT4cDZf32C02K8tAURVFPMVTDa1mDi7UepqtVCwjemsDJRQcvTNOmUonapIQjF2rPYXAo8JUEe7K4+A/+PHQRHb3q+JY2XIT5ki+hOVXW0CEV/uzJhsMnUtDyFmVkt5sBR4lZ7xpFs7S/sgaX6WoJDf9EoDJA8NYAXlBj0kcSZAEttVPa0ZN3CZ68eWEheMGe/O1vC/zZnCMlylG5hTNuFnPeVm/RSH3dq79SAK2F116ZxKWl0aHJuj9e94VFd5N0988+LBurBQRvDTAO3oRmpDfLj7S4ePIaalwnkAcQvGBPONLIS4deyEUVEbxp2r3vItCNMT8lTygF4oRlH6UASguvPT2XZagGH9+O4vh62ZcHDx7Iiyry7VLbDcoBgrfijNNl+lG7JXjv7odL01yu4zMBAC8iXe3kIHgTst/SnGDt4BR5wnHqGr9fAx9NdBJhdS5nmNBoNOT/Zs0yehndvL29LaUZmmgxC/gG3BkqBgRv5VGbZQvBTNFKo8wdUqOfMAcAyMbW1hbfPMxJ0lMZwSuCzLhFpL0/jHN0UROocLYnk4j3zs5OkzI2rB3UGH3ixAmx9soqeJ0nyKX7Iu9NTAowXa16QPBWHH7SVjdtWTJrFBCWEnW02ecYTwDAwaS+pXORVRkMBqIUteU9/KPG63FSCsR0Y/TZQEFbznCQ57I2am1HCU59Zu/Roy9IGzAq09kI6IHgrTCpB61LiiqwJ1T1JCEhRvMaAJVArL56VBGOHTsWVAlGs9mUF3GOKGPqmqqcIV3bD0QRtXYq0Xjy5BWj9CcOfmgK2BsI3gpjHNL4IT6hpp68DjXFkTfbHQAA8EFE5ifkEUnFHz9+XOtfLmUNMSlwKAHoHnav0ZY1uJRoONiR0SwCHoQHBG+lcUnjl+29ux/6MY2SrkPzGgDAJ1LSQIE5lvA2SZRclaHjdVJV+5qWM2QNKlhLyaFetdqyBm2JhkxXS5IkJp0dWQ/lDNUEgreitFq/WiW9965csKG4M7xA6snbIR1LxgxRywsA8IZ431JggnfsD6yOMqpcbVhkS6OYwtGg0Zn1OzVlDZoSjc3NTY4OJ6rosNtkUFAmELwVxVCkbj4IfRyi0lg9/eEIbg0A5MxwOJSyqCYpMWbhMQE1ZUxdSxsVY8qGBFe6s3xjkWUNjcZzbaOz1O9C8FYUCN4Kko6qjElJ4jDkoSDgyQtAjbF2Z258ePNicXFRpq5pmqfEOSKTSHz33dc50r0lIjnT2polGlpUWYN2UlxKMFaeIDsQvNXEpTmrO+sTd1nAkxeAumOaBJw4c+aMvKjKGrJGN5WOBhKxzVSiMI4iZx9CkaWsQWmtNiL07Cg4GAjeCmLIunjvukRPC4O38wYp4YVZfXwAAIezuOjkTQs8IJHKY8eSHo0tyrKSSSSOG/cyC95e1uDK0aNHM4tkyug8oa9F5sSEiVDOUGEWCFQKTtfHfN01SQmL5fbl1qU2BY8lB0aLOVJPAOTDcHiUP29D8JYMp+ZlobzD63rW9LxJbRw7h32jOBr0+/3YZCxn0ERDxWO4y9D4YWrmv8dBDvEGXpvleyWKPNjZjkkBpqtVG0R4K4ahZJXAoUTUcJooBAAAwvHjx1m76Rv08mRpaaQJtfZkM0Vsnz9/bvi+k3U9tQkND7Uj242Dx3Az7W05EBHvOzs7MSmmBKbe9XjIqzAQvBVi3IxlIORmwHXsJAAA+CAh+z+UE9pGr5SZRKJyQIO6ueuVV56Ix7DCreHwYJBSvAvWmMylFiAwIHgrRXYrmTmGxe5wlQAAoWGq1LS2tbUl09JOUsDoJ1QefE/RDmhwae768Y//hVLv3qxuDYcO1HCZroZyhuoDwVshXLx35xHjMHYSALA/aTf9NzQHpP6z2myRRCtzTYMr/WtHmEOat4osZ5gw5TGctRkvPihivbKyIuJdap2blJ0upqtVHwjeiuDqvTunxJopPACA3Ak6YjqNDCkgveAVchW80uhFY3Go+TvLB5V+FV3OMMVMI4lfZv+I9eLiorzEpNkYQnS3DkDwVgR+yl4joCCKCQDglbFNlV7IhV4iMM32tlOEN/epcg4RUWHJmL0FrTYi6sOrdmp0cpZzzBwUsd7e3ub/b1V2ZAqrNBAgELyVQVd3NO/AkxcA/+zs7IgdllrwJmRPUUVYTBIRcU1SUsRUOZepa9buO4RBGsEKLWeY4FjWsLTX7+NzVv49puz0Qh/WBGYDgrcCcFpe0jRNAhqWUNYAgF9YjPBnfQ0vP4ieowogUc4t3QjaKRZ6lDPp1LU2KdhvNK+UcpjsgZa+L/9zvYh/uVn50aMvCNPVAARvBYCnrBuGGtcJAOCZhkvUq1kF28BTp57x52GTHCii2WkqItqh7LwUFJDft7UVNSmj2DfKUcd7oRTxe5Y1KEcjC14i1iAMIHgDR5rVxFOWgAsxPHkB8Me4xtK5GatJgfP4sQydcConKywV7lLWsLvX4cGDB/KS9b7jdfSug4h/ab13sCPrY2JnfYDgDR5dGgbsJrlKAAAvpGKkR06itxprm0v5RZHWbWlEVBVh3e1hq2zw6q+vr3sTvIJDWcP3Yl3rJSzAnaFeQPAGDqdnkI73gDKdBQA4GG0E0zVymjuOjU4T7lNByPZGUdTjjGCPsvN9VDTd7yZl3O88xKFDWcNbky82Nzel+U5VzmBMw1uJBiifBQLBwgtQzNdck/R0FTPJgyVtoIhJx7LUqSE9BYA/eH25z9dlTArkehaRtbGxkatPrZZxo5PsmzouxNoz6VCBNBoNjmYOeM3XuNOMmr1ufvXVVzSOvmfa71zEoYjvlZWV/mBnu0PZ1v7lybklzXeDHUxXAxC8QWNGs8ENqTHR2obnFFOZyAMAp9liUhNJmqtDAABnZMJXv7/D64vVWv9xRHEgTVEdCpC///2IiSh5y5ILC4XaWTm8J5OI+03aFSGdFRaHudxrpKyBI853M679o3OLBXOn2+02+WczO23w+97BdLV6gZKGQBmnl5zS8L31GoldgRefDjncHMV+B81rAPjBccKXwMKq8T4FiEQWWcA5NQyngqnQ6HW73Zba6g4p3pNJxF1ZznAnr33VljVE1Hjrh2h1ZiQ6r2kABAEDwRsso6J7/XSfmkYyLRkXEb+0l0cjACA7jhO+JsTp2PSgYKEk0d3fkh5O8ZcznWthYYGUpWxpxD2zQMy11lXr1iAPK4PBgN/HSDNdjWl0CNQKCN5A4ZSSk/duQuYG1ZM2OXSG83FF8xoAnnCwwprAgsQGFeWdNG3xfjnZQZZV/3n06FHtKFyxJ2tpBGJe5QwTZLIfvx9Zj+eStTuxxXQ1kALBGyBpxCMmJXWuPZK0mWMjHjx5AfDEVLpZ/RDK69VqSNMQv/76a2MoEXecJikpcw12KTWRsq+sZRxFlG4sL49KcLOKeCmZ+YAUmVJMV6snELwBwovtGjlh2lRrojY5AU9eAHwg0VBjTN9RIIyESQgPouLZ+uzZs5j2Gbc7I6WVMwiOpSZZ34NC9nXK97lD2cjcrEaYrlZbIHiDxMmfUlIxpS22RSDNa0qvyRFGZdkDANiLkydPskAwt8iN8xFHVVn0UlmsrKxQv98/bcj+kdyQhuFS1+C01KSQpuWiSjeUZQ0aMF2tpkDwBgan9mTFb5KS+UnFGJcbylJIKVQAqkzqDCBCpEMOsJh5ryzRm9btnmKx+wm5jTy2YgdJJZOWmuQuuoss3VhaGgWfO5QzRjmtDoQPBG9AjCblUMO1Wc010lIVbpIDfJzfk+MNAHBH/F+te6Os4d9xvWjRK5HdbrcrYvfPpEuBT9PjiGfpdlZaZ4OM2CLL5+TBKoqiz12yezNgrYkgeGsKBG9AiEG2i+8jc29eOkvTJokOKZHOXT7eaF4DwAO+orw0JXovX75s8n4oFbHLkd3TnsSuiP61UCbHFVQC8J9UIEmSWMfs3qHwA0uh+wSKA4I3KFQG2d9j5ye6O8IxogRPXgA8cvbsWRFY75A7InrXjE0+4YfS0xLt9S185fdduXLFsCi84EnsCg9Z7AbT7MQPIPKSWx1vGU4UeZc1lDEsBBQHBG8gSHewoeg6uTFXc7/TyWtOnrxy3AEA7qSi9KH15AEu2S4Wo3+RaK+UHLzxxutGIrIuyPUuQleEtE0G7VTsNskdEfv/SgFx+/ZtKQHo5lQCUGg5w4ScyxpK2SdQHAsEgqDf78fGrVmtvT6Hc78lqs03Le2DQtzv/yMmeC4C4AV+CKVfX7x443lkZHjBeXJnaRTtJbv6/Fmjk9DOH1iwdo8e3Wbhc9JKFFN8Z3dHgCdfP3r0BW1unqSnT58aTlWn66x934x8zg15gn+zvbGxcadHgdFoNChJBhzlzcWZppTUfx33CRQDBG8gGEpWXRbghIa1tiI7AGkwcIiMRy2+OXbQwAaAH/7p1VctR1D/jYXlf/GXp8gP0t+wKsLXJsPeWPw+6fLK92W32+/9utXqTb5xO4oorc/nD7NM9OSnEZmYv/4lOYxr3w/p6l/fuBvkZEtpJuz3d3iNtL7FYbeswRp13CdQDChpCIBxms64jLztzatvYNqk1yElMlkIzWsA+EMeHgeDwcO0nteSf1Lxa24aavyZRfBfn5NNJh8siBP+t/+VfzcUfcLf93v+fllf87jOHyZkfkeBMtVM6LMulSPaSWkBlpz2iU/UckZBg+KA4A2AnZ2tVXJYjPlCndfo7ghHg3U+7gMfDSsAgJRPP/1UInEbNmAx6AER9a+FHhVcWHhGjuPY96BRyFCLg/B83+NnogR2ZDUHgrdkRqM5KXLy3nUftVt52uTUvNa4jpIGUHPyiLQeyMcffywvN301sQVGJcSuMBgc5/fedsgfpaf+payB73s+BapkSRHhrTkQvCUj3rs0aqDQUYY1TGiIjYzj0z48eQHIAWliY9ZS0Vu46M6Jyohd4ezZs+QzIhtC6t93WcP8TCidbyB4Sye5Sg4YM/fR3RTXp3239wEAsDciegeDgYjeK/zlY6ouItjvVUnsCp6nrklkNZgSOk9lDZiuNidA8JbIuJzBrVltfX19rut3J6SevB1SIs1rKGsAIB+kpnd5eVlqev+Zv3xI1UOsx25VTexOWFxctI69DhN6oUzz9FnWwPfR0sdBg/yB4C2RtJyhSUqQhnkRxwW9ibIGUHNKLSmQB0oWS1IO8LMKlTjINso2X97YuHutqlO4zpw5Iy/OwRH/zW96fJU1hLRPIF8geCtMUs9mEBfa5Lb4Nal4cr2BGpdmPrNQ5fTzfqiPR/Vr5e03FABS4sDR3rWx8B2lpEMUvrJNj0WY88ervM2VFkWeyhokohrU+HoPDhTiznCTwFwAwVsi6Q1UJSr4Kl2HSfaLpM1rLimuHinhC+keKWBBmmt6kB+K7pMSa636Z8NFlwLl6+0zCgCHNaPH8iCIVLSQRnt7S0s/WpUyARof3xCE77TQ/Rlv442qRnX3wKY2cZrjPCrpCO2eM3agGIlwzTVhZUIp3BnmBwjeklEsQKMUG9Xb39KB6BqNawQzHdPxaFD9jS01n8/yd0fvYwFReoleZN2uyfHoUc1Ia72ziKvJ9fYOBYJmzRABF6Jwk7S0vCfnls+/NhXxzXr9upKe8/QZb8PVGgrdEbdv35Yo772pgSCzHOPJenBLSjooMGSfBoPBZJ9mPW8m+36P199/JzA3eBsmDvS0Wq0mS6b3IjInD/q+hOy3LOh6/J8f1W0x9g0f01U+YudmPKZ3UiHk+jebNLKYm+XvjiKvhb2Psx+P0Xbd93E8QoaPR4v39pehvU+zkq4Zq7z9Pzno+9Lzmzd/ozJRrNXVVer3+zFvPb9H5hd8k5oeDOPjnjURRZwRkgyLkaj/3XnJmEl0Pe0fucTHuHnQNcDnv2QF7od+/kztU3zYOpeMSnuiTpWuCeAHCF4AAABBkgoZaSYV0XuO5cppQ+bnLFSXdgnhgxBh2+d0ZncsdiyLuMb9UNwGAADFAMELAACgkkxF9vYEfQ4AAAAAAAAAAAAAAAAAAAAAAAAAAAAAAAAAAAAAAAAAAAAAAAAAAAAAAAAAAAAAAAAASPl/8yxzhlYnT8gAAAAASUVORK5CYII=;" vertex="1" parent="1sHCwfxGnrAHTTrKWaEu-1007">
          <mxGeometry x="102.28999999999999" y="40" width="45.42" height="70.07" as="geometry" />
        </mxCell>
        <mxCell id="y1yzruNpIGWwOKtuv_Qm-29" value="" style="endArrow=classic;html=1;rounded=0;" edge="1" parent="1sHCwfxGnrAHTTrKWaEu-1007">
          <mxGeometry relative="1" as="geometry">
            <mxPoint x="230" y="150" as="sourcePoint" />
            <mxPoint x="320" y="150" as="targetPoint" />
          </mxGeometry>
        </mxCell>
        <mxCell id="y1yzruNpIGWwOKtuv_Qm-55" value="DAGs" style="html=1;whiteSpace=wrap;shape=mxgraph.flowchart.multi-document;fontSize=11;fontColor=#000000;spacing=5;strokeOpacity=100;rounded=1;absoluteArcSize=1;arcSize=6;strokeWidth=1.2;" vertex="1" parent="1sHCwfxGnrAHTTrKWaEu-1007">
          <mxGeometry x="77" y="120" width="96" height="71" as="geometry" />
        </mxCell>
        <mxCell id="1sHCwfxGnrAHTTrKWaEu-1010" value="" style="strokeColor=#dddddd;shadow=1;strokeWidth=1;rounded=1;absoluteArcSize=1;arcSize=2;" parent="1" vertex="1">
          <mxGeometry x="600" y="261" width="110" height="158" as="geometry" />
        </mxCell>
        <mxCell id="1sHCwfxGnrAHTTrKWaEu-1011" value="Cloud&#xa;Storage" style="sketch=0;dashed=0;connectable=0;html=1;fillColor=#5184F3;strokeColor=none;shape=mxgraph.gcp2.hexIcon;prIcon=cloud_storage;part=1;labelPosition=right;verticalLabelPosition=middle;align=left;verticalAlign=middle;spacingLeft=5;fontColor=#999999;fontSize=12;" parent="1sHCwfxGnrAHTTrKWaEu-1010" vertex="1">
          <mxGeometry y="0.5" width="44" height="39" relative="1" as="geometry">
            <mxPoint x="5" y="-19.5" as="offset" />
          </mxGeometry>
        </mxCell>
        <mxCell id="y1yzruNpIGWwOKtuv_Qm-56" value="Bucket" style="sketch=0;outlineConnect=0;fontColor=#232F3E;gradientColor=none;strokeColor=#232F3E;fillColor=#ffffff;dashed=0;verticalLabelPosition=bottom;verticalAlign=top;align=center;html=1;fontSize=12;fontStyle=0;aspect=fixed;shape=mxgraph.aws4.resourceIcon;resIcon=mxgraph.aws4.bucket;" vertex="1" parent="1sHCwfxGnrAHTTrKWaEu-1010">
          <mxGeometry x="44" y="95.93" width="34.07" height="34.07" as="geometry" />
        </mxCell>
        <mxCell id="y1yzruNpIGWwOKtuv_Qm-20" value="" style="strokeColor=#dddddd;shadow=1;strokeWidth=1;rounded=1;absoluteArcSize=1;arcSize=2;" vertex="1" parent="1">
          <mxGeometry x="790" y="282" width="120" height="110" as="geometry" />
        </mxCell>
        <mxCell id="y1yzruNpIGWwOKtuv_Qm-21" value="BigQuery" style="sketch=0;dashed=0;connectable=0;html=1;fillColor=#5184F3;strokeColor=none;shape=mxgraph.gcp2.hexIcon;prIcon=bigquery;part=1;labelPosition=right;verticalLabelPosition=middle;align=left;verticalAlign=middle;spacingLeft=5;fontColor=#999999;fontSize=12;" vertex="1" parent="y1yzruNpIGWwOKtuv_Qm-20">
          <mxGeometry y="0.5" width="44" height="39" relative="1" as="geometry">
            <mxPoint x="5" y="-19.5" as="offset" />
          </mxGeometry>
        </mxCell>
        <mxCell id="y1yzruNpIGWwOKtuv_Qm-52" value="Data Warehouse" style="text;html=1;strokeColor=none;fillColor=none;align=center;verticalAlign=middle;whiteSpace=wrap;rounded=0;" vertex="1" parent="y1yzruNpIGWwOKtuv_Qm-20">
          <mxGeometry x="30" y="80" width="60" height="30" as="geometry" />
        </mxCell>
        <mxCell id="y1yzruNpIGWwOKtuv_Qm-40" value="OLAP" style="text;html=1;strokeColor=none;fillColor=none;align=center;verticalAlign=middle;whiteSpace=wrap;rounded=0;" vertex="1" parent="y1yzruNpIGWwOKtuv_Qm-20">
          <mxGeometry width="60" height="30" as="geometry" />
        </mxCell>
        <mxCell id="y1yzruNpIGWwOKtuv_Qm-34" value="" style="endArrow=classic;html=1;rounded=0;" edge="1" parent="1">
          <mxGeometry relative="1" as="geometry">
            <mxPoint x="723" y="346" as="sourcePoint" />
            <mxPoint x="783" y="346" as="targetPoint" />
          </mxGeometry>
        </mxCell>
        <mxCell id="y1yzruNpIGWwOKtuv_Qm-36" value="" style="endArrow=classic;html=1;rounded=0;entryX=0.026;entryY=0.663;entryDx=0;entryDy=0;entryPerimeter=0;" edge="1" parent="1" target="y1yzruNpIGWwOKtuv_Qm-55">
          <mxGeometry relative="1" as="geometry">
            <mxPoint x="220" y="413" as="sourcePoint" />
            <mxPoint x="320" y="413" as="targetPoint" />
          </mxGeometry>
        </mxCell>
        <mxCell id="y1yzruNpIGWwOKtuv_Qm-38" value="" style="endArrow=classic;html=1;rounded=0;entryX=0.026;entryY=0.323;entryDx=0;entryDy=0;entryPerimeter=0;" edge="1" parent="1" target="y1yzruNpIGWwOKtuv_Qm-55">
          <mxGeometry relative="1" as="geometry">
            <mxPoint x="203" y="305" as="sourcePoint" />
            <mxPoint x="303" y="305" as="targetPoint" />
          </mxGeometry>
        </mxCell>
        <mxCell id="y1yzruNpIGWwOKtuv_Qm-41" value="OLTP" style="text;html=1;strokeColor=none;fillColor=none;align=center;verticalAlign=middle;whiteSpace=wrap;rounded=0;" vertex="1" parent="1">
          <mxGeometry x="130" y="225" width="60" height="30" as="geometry" />
        </mxCell>
        <mxCell id="y1yzruNpIGWwOKtuv_Qm-44" value="" style="editableCssRules=.*;shape=image;verticalLabelPosition=bottom;labelBackgroundColor=#ffffff;verticalAlign=top;aspect=fixed;imageAspect=0;image=data:image/svg+xml,PHN2ZyB4bWxucz0iaHR0cDovL3d3dy53My5vcmcvMjAwMC9zdmciIHhtbG5zOnY9Imh0dHBzOi8vdmVjdGEuaW8vbmFubyIgd2lkdGg9IjIwLjAwMDAyNjcwMjg4MDg2IiBoZWlnaHQ9IjE4LjM1OTQ1MTI5Mzk0NTMxMiIgdmlld0JveD0iLTAuMDAwMDI2Njc4MTQ5ODc5NDQ0MzkgMC4wMDAwOTc3MzIxMjUxNDExOTIyMyAyMC4wMDAwMjY3MDI4ODA4NiAxOC4zNTk0NTEyOTM5NDUzMTIiPiYjeGE7CTxzdHlsZSB0eXBlPSJ0ZXh0L2NzcyI+JiN4YTsJLnN0MHtmaWxsOiM2NjlkZjY7fSYjeGE7CS5zdDF7ZmlsbDojNDI4NWY0O30mI3hhOwk8L3N0eWxlPiYjeGE7CTxwYXRoIGNsYXNzPSJzdDAiIGQ9Ik0xNy41IDEzLjM0OGgtNy4yNmEyLjUzIDIuNTMgMCAwIDAtMi43NCAyLjUgMi41IDIuNSAwIDAgMCAyLjc0IDIuNWg3LjI2eiIgZmlsbD0iIzY2OWRmNiIvPiYjeGE7CTxjaXJjbGUgY2xhc3M9InN0MSIgY3g9IjE3LjUiIGN5PSIxNS44NDgiIHI9IjIuNSIgZmlsbD0iIzQyODVmNCIvPiYjeGE7CTxwYXRoIGNsYXNzPSJzdDAiIGQ9Ik0xMCA2LjY3OEgyLjc0QTIuNTMgMi41MyAwIDAgMCAwIDkuMTc4YTIuNSAyLjUgMCAwIDAgMi43NCAyLjVIMTB6IiBmaWxsPSIjNjY5ZGY2Ii8+JiN4YTsJPGNpcmNsZSBjbGFzcz0ic3QxIiBjeD0iMTAiIGN5PSI5LjE3OCIgcj0iMi41IiBmaWxsPSIjNDI4NWY0Ii8+JiN4YTsJPHBhdGggY2xhc3M9InN0MCIgZD0iTTE3LjUuMDA4aC03LjI2YTIuNTQgMi41NCAwIDAgMC0yLjc0IDIuNSAyLjUgMi41IDAgMCAwIDIuNzQgMi41aDcuMjZ6IiBmaWxsPSIjNjY5ZGY2Ii8+JiN4YTsJPGNpcmNsZSBjbGFzcz0ic3QxIiBjeD0iMTcuNSIgY3k9IjIuNTA4IiByPSIyLjUiIGZpbGw9IiM0Mjg1ZjQiLz4mI3hhOzwvc3ZnPg==;" vertex="1" parent="1">
          <mxGeometry x="805.56" y="500" width="44.44" height="40" as="geometry" />
        </mxCell>
        <mxCell id="y1yzruNpIGWwOKtuv_Qm-45" value="Google&lt;br style=&quot;font-size: 11px;&quot;&gt;Data Studio" style="text;html=1;strokeColor=none;fillColor=#dae8fc;align=center;verticalAlign=middle;whiteSpace=wrap;rounded=0;fontSize=11;" vertex="1" parent="1">
          <mxGeometry x="860" y="500" width="60" height="35" as="geometry" />
        </mxCell>
        <mxCell id="y1yzruNpIGWwOKtuv_Qm-51" value="" style="edgeStyle=segmentEdgeStyle;endArrow=classic;html=1;rounded=0;" edge="1" parent="1">
          <mxGeometry width="50" height="50" relative="1" as="geometry">
            <mxPoint x="861" y="403" as="sourcePoint" />
            <mxPoint x="861" y="479.4999999999998" as="targetPoint" />
            <Array as="points">
              <mxPoint x="861" y="452" />
              <mxPoint x="861" y="452" />
            </Array>
          </mxGeometry>
        </mxCell>
      </root>
    </mxGraphModel>
  </diagram>
</mxfile>
